<?xml version="1.0" encoding="utf-8"?>
<!-- Generator: Adobe Illustrator 22.1.0, SVG Export Plug-In . SVG Version: 6.00 Build 0)  -->
<svg version="1.1" xmlns="http://www.w3.org/2000/svg" xmlns:xlink="http://www.w3.org/1999/xlink" x="0px" y="0px"
	 viewBox="0 0 360 360" style="enable-background:new 0 0 360 360;" xml:space="preserve">
<style type="text/css">
	.st0{fill:#003E7E;}
	.st1{display:none;}
	.st2{display:inline;}
	.st3{display:inline;fill:#DDBA73;}
	.st4{display:inline;fill:#E6C991;}
	.st5{display:inline;fill:#FFFFFF;}
	.st6{fill:#DDBA73;}
	.st7{fill:#E6C991;}
	.st8{fill:#FFFFFF;}
	.st9{font-family:'Helvetica';}
	.st10{font-size:24.7177px;}
	.st11{font-size:24.7172px;}
	.st12{font-size:24.7179px;}
	.st13{font-size:24.7167px;}
	.st14{font-size:24.7187px;}
	.st15{font-size:24.7185px;}
	.st16{font-size:24.7186px;}
	.st17{font-size:24.7168px;}
	.st18{font-size:24.7189px;}
	.st19{font-size:24.718px;}
	.st20{font-size:24.7169px;}
	.st21{font-size:24.7181px;}
	.st22{font-size:24.7183px;}
	.st23{font-size:24.7164px;}
	.st24{font-size:24.7184px;}
	.st25{font-size:24.717px;}
	.st26{font-size:24.7188px;}
	.st27{font-size:24.7178px;}
	.st28{font-size:24.7173px;}
	.st29{font-size:24.7193px;}
	.st30{font-size:24.7166px;}
	.st31{font-size:24.7176px;}
</style>
<g id="_x32_86">
	<path class="st0" d="M89.4,97.2c14.4-16,34.2-23.1,54.6-19c18.1,3.6,28.5,17.9,32,35.1c3.5,17.3-3,35.5-18.4,44
		c-24.7,13.6-53.9,24.2-59.4,55c-4.2,24.1,3.4,47.2,18,66.4c-31.2-16.8-49.2-50.4-55.1-85.2C55.3,158.7,65.3,124,89.4,97.2"/>
	<path class="st0" d="M156,293.7c-21.1-4.4-37.1-17.9-43.9-37.6c-6-17.5,1.1-33.7,14.3-45.3c13.2-11.7,32.2-15.3,47.2-6.2
		c24.2,14.5,48,34.4,77.4,23.6c22.9-8.4,39.1-26.6,48.4-49c1.2,35.4-18.9,67.9-45.9,90.5C226.4,292.3,191.4,301.1,156,293.7"/>
	<path class="st0" d="M292.2,136.3c6.9,20.4,3.3,41.1-10.2,56.9c-12,14-29.6,16-46.3,10.6c-16.8-5.5-29.4-20-29.3-37.6
		c0.3-28.2,5.4-58.9-18.8-78.7c-18.9-15.5-43.5-19.6-67.4-16.3c30-18.9,68.8-18.7,102-6.8C255.4,76.4,280.7,102.1,292.2,136.3"/>
</g>
<g id="K" class="st1">
	<path class="st2" d="M89.4,97.2c14.4-16,34.2-23.1,54.6-19c18.1,3.6,28.5,17.9,32,35.1c3.5,17.3-3,35.5-18.4,44
		c-24.7,13.6-53.9,24.2-59.4,55c-4.2,24.1,3.4,47.2,18,66.4c-31.2-16.8-49.2-50.4-55.1-85.2C55.3,158.7,65.3,124,89.4,97.2"/>
	<path class="st2" d="M156,293.7c-21.1-4.4-37.1-17.9-43.9-37.6c-6-17.5,1.1-33.7,14.3-45.3c13.2-11.7,32.2-15.3,47.2-6.2
		c24.2,14.5,48,34.4,77.4,23.6c22.9-8.4,39.1-26.6,48.4-49c1.2,35.4-18.9,67.9-45.9,90.5C226.4,292.3,191.4,301.1,156,293.7"/>
	<path class="st2" d="M292.2,136.3c6.9,20.4,3.3,41.1-10.2,56.9c-12,14-29.6,16-46.3,10.6c-16.8-5.5-29.4-20-29.3-37.6
		c0.3-28.2,5.4-58.9-18.8-78.7c-18.9-15.5-43.5-19.6-67.4-16.3c30-18.9,68.8-18.7,102-6.8C255.4,76.4,280.7,102.1,292.2,136.3"/>
</g>
<g id="_x31_4_x2F_25_x2F_64_x2F_0" class="st1">
	<path class="st3" d="M89.4,97.2c14.4-16,34.2-23.1,54.6-19c18.1,3.6,28.5,17.9,32,35.1c3.5,17.3-3,35.5-18.4,44
		c-24.7,13.6-53.9,24.2-59.4,55c-4.2,24.1,3.4,47.2,18,66.4c-31.2-16.8-49.2-50.4-55.1-85.2C55.3,158.7,65.3,124,89.4,97.2"/>
	<path class="st3" d="M156,293.7c-21.1-4.4-37.1-17.9-43.9-37.6c-6-17.5,1.1-33.7,14.3-45.3c13.2-11.7,32.2-15.3,47.2-6.2
		c24.2,14.5,48,34.4,77.4,23.6c22.9-8.4,39.1-26.6,48.4-49c1.2,35.4-18.9,67.9-45.9,90.5C226.4,292.3,191.4,301.1,156,293.7"/>
	<path class="st3" d="M292.2,136.3c6.9,20.4,3.3,41.1-10.2,56.9c-12,14-29.6,16-46.3,10.6c-16.8-5.5-29.4-20-29.3-37.6
		c0.3-28.2,5.4-58.9-18.8-78.7c-18.9-15.5-43.5-19.6-67.4-16.3c30-18.9,68.8-18.7,102-6.8C255.4,76.4,280.7,102.1,292.2,136.3"/>
</g>
<g id="_x31_0_x2F_19_x2F_48_x2F_0_1_" class="st1">
	<path class="st4" d="M89.4,97.2c14.4-16,34.2-23.1,54.6-19c18.1,3.6,28.5,17.9,32,35.1c3.5,17.3-3,35.5-18.4,44
		c-24.7,13.6-53.9,24.2-59.4,55c-4.2,24.1,3.4,47.2,18,66.4c-31.2-16.8-49.2-50.4-55.1-85.2C55.3,158.7,65.3,124,89.4,97.2"/>
	<path class="st4" d="M156,293.7c-21.1-4.4-37.1-17.9-43.9-37.6c-6-17.5,1.1-33.7,14.3-45.3c13.2-11.7,32.2-15.3,47.2-6.2
		c24.2,14.5,48,34.4,77.4,23.6c22.9-8.4,39.1-26.6,48.4-49c1.2,35.4-18.9,67.9-45.9,90.5C226.4,292.3,191.4,301.1,156,293.7"/>
	<path class="st4" d="M292.2,136.3c6.9,20.4,3.3,41.1-10.2,56.9c-12,14-29.6,16-46.3,10.6c-16.8-5.5-29.4-20-29.3-37.6
		c0.3-28.2,5.4-58.9-18.8-78.7c-18.9-15.5-43.5-19.6-67.4-16.3c30-18.9,68.8-18.7,102-6.8C255.4,76.4,280.7,102.1,292.2,136.3"/>
</g>
<g id="KO" class="st1">
	<path class="st5" d="M89.4,97.2c14.4-16,34.2-23.1,54.6-19c18.1,3.6,28.5,17.9,32,35.1c3.5,17.3-3,35.5-18.4,44
		c-24.7,13.6-53.9,24.2-59.4,55c-4.2,24.1,3.4,47.2,18,66.4c-31.2-16.8-49.2-50.4-55.1-85.2C55.3,158.7,65.3,124,89.4,97.2"/>
	<path class="st5" d="M156,293.7c-21.1-4.4-37.1-17.9-43.9-37.6c-6-17.5,1.1-33.7,14.3-45.3c13.2-11.7,32.2-15.3,47.2-6.2
		c24.2,14.5,48,34.4,77.4,23.6c22.9-8.4,39.1-26.6,48.4-49c1.2,35.4-18.9,67.9-45.9,90.5C226.4,292.3,191.4,301.1,156,293.7"/>
	<path class="st5" d="M292.2,136.3c6.9,20.4,3.3,41.1-10.2,56.9c-12,14-29.6,16-46.3,10.6c-16.8-5.5-29.4-20-29.3-37.6
		c0.3-28.2,5.4-58.9-18.8-78.7c-18.9-15.5-43.5-19.6-67.4-16.3c30-18.9,68.8-18.7,102-6.8C255.4,76.4,280.7,102.1,292.2,136.3"/>
</g>
<g id="K_copy" class="st1">
	<g class="st2">
		<g>
			<path d="M50.5,208.1l-10.6,2.8c-1.2,0.3-2.2,0.9-2.9,1.6c-1,1.1-1.3,2.5-0.9,4.3c0.6,2.1,1.6,3.4,3.2,3.8
				c0.8,0.2,1.9,0.2,3.1-0.2l10.6-2.8l0.7,2.5l-9.6,2.6c-2.1,0.6-3.8,0.7-5.1,0.4c-2.4-0.6-4-2.4-4.8-5.5c-0.8-3.1-0.4-5.5,1.4-7.1
				c1-0.9,2.5-1.6,4.6-2.2l9.6-2.6L50.5,208.1z"/>
		</g>
		<g>
			<path d="M54.8,222.9l1.2,2.8L46.6,240l13.1-5.7l1,2.2l-16.3,7.1l-1.1-2.6l9.3-14.5l-13.1,5.7l-1-2.2L54.8,222.9z"/>
		</g>
		<g>
			<path d="M63,240.5l1.3,2.3l-15.5,8.7l-1.3-2.3L63,240.5z"/>
		</g>
		<g>
			<path d="M74,257.3l-1.7,1.2l-3.6-5.3l-12.9,8.9l-1.5-2.1l12.9-8.9l-3.6-5.3l1.7-1.2L74,257.3z"/>
		</g>
		<g>
			<path d="M75.2,258.9l9.2,10.2l-1.6,1.4l-7.5-8.4l-4,3.6l6.9,7.7l-1.5,1.4l-6.9-7.7l-4.5,4l7.6,8.5l-1.6,1.4L62,270.7L75.2,258.9z
				"/>
		</g>
		<g>
			<path d="M86.5,271.3l5.8,4.9c2,1.7,2.9,3.6,2.9,5.9c0,2-0.9,3.9-2.4,5.8c-1.2,1.4-2.6,2.5-4.2,3.2c-2.7,1.2-5.3,0.8-7.8-1.3
				l-5.7-4.9L86.5,271.3z M81.7,287.8c0.6,0.6,1.2,0.9,1.8,1.2c0.9,0.4,1.9,0.4,3,0.2c0.8-0.2,1.7-0.7,2.6-1.4
				c0.5-0.4,1-0.9,1.3-1.3c1.4-1.7,2.2-3.3,2.3-4.8c0.1-1.5-0.6-2.9-2.2-4.2l-3.4-2.9l-8.8,10.4L81.7,287.8z"/>
		</g>
		<g>
			<path d="M102.4,298.4c-0.4,0.9-0.6,1.7-0.6,2.5c0.1,1.4,1.1,2.6,2.9,3.7c0.8,0.5,1.6,0.8,2.4,0.9c1.5,0.3,2.6-0.1,3.2-1.2
				c0.5-0.8,0.5-1.6,0.2-2.3c-0.4-0.7-1-1.5-2.1-2.4l-1.9-1.7c-1.2-1.1-2-2-2.4-2.7c-0.6-1.2-0.6-2.5,0.1-3.7
				c0.8-1.4,1.9-2.2,3.4-2.6c1.5-0.3,3.2,0,5,1.1c1.7,1,2.9,2.2,3.6,3.6c0.7,1.4,0.6,3-0.4,4.7l-2.1-1.2c0.4-0.9,0.5-1.6,0.4-2.3
				c-0.2-1.2-1.1-2.2-2.6-3.1c-1.3-0.7-2.3-1-3.2-0.8c-0.8,0.2-1.5,0.7-1.9,1.3c-0.4,0.8-0.4,1.5,0,2.2c0.3,0.5,1.1,1.3,2.4,2.5
				l2,1.8c0.9,0.9,1.6,1.7,1.9,2.4c0.6,1.3,0.5,2.6-0.3,4c-1,1.7-2.3,2.6-4,2.6c-1.7,0-3.4-0.5-5.1-1.5c-2-1.1-3.3-2.5-3.9-4.1
				c-0.6-1.6-0.4-3.2,0.6-4.9L102.4,298.4z"/>
		</g>
		<g>
			<path d="M134.6,300.8l-0.8,1.9l-5.9-2.5l-6,14.4l-2.4-1l6-14.4l-5.9-2.5l0.8-1.9L134.6,300.8z"/>
		</g>
		<g>
			<path d="M140,302.1l2.8,0.8l1.6,18.9l-2.7-0.8l-0.4-5.7l-7.1-2.1l-3.5,4.5l-2.5-0.7L140,302.1z M141.1,313.3l-0.6-8.3l-5.1,6.7
				L141.1,313.3z"/>
		</g>
		<g>
			<path d="M162.8,307.3l-0.4,2.1l-6.3-1.1l-2.8,15.4l-2.5-0.5l2.8-15.4l-6.3-1.1l0.4-2.1L162.8,307.3z"/>
		</g>
		<g>
			<path d="M164.9,307.4l13.7,0.8l-0.1,2.2l-11.2-0.7l-0.3,5.4l10.4,0.6l-0.1,2l-10.4-0.6l-0.4,6l11.4,0.7l-0.1,2.1l-13.9-0.8
				L164.9,307.4z"/>
		</g>
		<g>
			<path d="M184.1,320.3c0.1,1,0.4,1.8,0.9,2.4c0.9,1.1,2.4,1.6,4.4,1.5c0.9-0.1,1.8-0.2,2.5-0.5c1.4-0.6,2.1-1.5,2-2.8
				c-0.1-1-0.4-1.6-1.1-2c-0.7-0.4-1.7-0.6-3-0.9l-2.5-0.4c-1.6-0.3-2.8-0.6-3.5-1c-1.2-0.7-1.9-1.7-2-3.2c-0.1-1.6,0.4-2.9,1.5-4
				c1.1-1.1,2.7-1.7,4.8-1.8c1.9-0.1,3.6,0.2,5,1c1.4,0.8,2.2,2.2,2.3,4.2l-2.4,0.2c-0.2-0.9-0.5-1.6-0.9-2.1
				c-0.8-0.9-2.1-1.3-3.9-1.1c-1.4,0.1-2.5,0.5-3.1,1.1c-0.6,0.6-0.9,1.3-0.8,2.1c0.1,0.9,0.5,1.5,1.2,1.8c0.5,0.2,1.6,0.5,3.4,0.8
				l2.6,0.4c1.3,0.2,2.2,0.5,2.9,0.9c1.2,0.8,1.9,1.9,2,3.5c0.1,2-0.5,3.4-2,4.3c-1.4,0.9-3.1,1.5-5.1,1.6c-2.3,0.1-4.1-0.3-5.5-1.4
				c-1.4-1-2.1-2.5-2.2-4.4L184.1,320.3z"/>
		</g>
		<g>
			<path d="M221.6,304.5c1.6,1.2,2.7,3,3.3,5.4c0.7,2.6,0.5,4.9-0.4,6.9c-1.1,2.4-3.2,4-6.2,4.8c-2.8,0.7-5.3,0.4-7.3-0.9
				c-1.9-1.3-3.1-3.3-3.8-5.8c-0.6-2.3-0.5-4.5,0.3-6.4c1-2.5,3.1-4.2,6.2-5C216.9,302.5,219.5,302.9,221.6,304.5z M222.2,316
				c0.6-1.7,0.7-3.5,0.2-5.4c-0.5-2-1.5-3.5-2.9-4.4c-1.4-0.9-3.1-1.2-5.1-0.7c-1.9,0.5-3.3,1.5-4.2,3c-0.9,1.5-1,3.5-0.4,5.9
				c0.5,1.9,1.4,3.4,2.8,4.4c1.4,1,3.2,1.3,5.5,0.7C220.2,318.8,221.6,317.7,222.2,316z"/>
		</g>
		<g>
			<path d="M225.3,300.4l12.2-4.9l0.8,2l-9.8,3.9l2,5l8.6-3.5l0.8,2l-8.6,3.5l3,7.5l-2.4,1L225.3,300.4z"/>
		</g>
		<g>
			<path d="M249.4,288.9l2.5-1.5l15.1,11.5l-2.4,1.5l-4.5-3.5l-6.3,3.9l1,5.6l-2.2,1.4L249.4,288.9z M258.5,295.6l-6.6-5.2l1.5,8.3
				L258.5,295.6z"/>
		</g>
		<g>
			<path d="M259.2,283l2.8-2.3l13.8,8.1l-5.4-15l2.8-2.3l11.3,13.6l-1.9,1.6l-6.7-8c-0.2-0.3-0.6-0.7-1.1-1.4
				c-0.5-0.7-1.1-1.4-1.7-2.1l5.4,15l-2,1.6l-13.8-8l0.3,0.4c0.3,0.3,0.7,0.8,1.3,1.5c0.6,0.7,1,1.2,1.3,1.5l6.7,8.1l-1.9,1.6
				L259.2,283z"/>
		</g>
		<g>
			<path d="M275.5,268.9l9.2-10.2l1.6,1.5l-7.5,8.4l4,3.6l6.9-7.7l1.5,1.4l-6.9,7.7l4.5,4l7.6-8.5l1.6,1.4l-9.3,10.4L275.5,268.9z"
				/>
		</g>
		<g>
			<path d="M286.6,256.2l4.8-7.1c0.8-1.2,1.6-2,2.5-2.6c1.6-1,3.2-1,4.9,0.2c0.9,0.6,1.5,1.3,1.8,2c0.3,0.8,0.4,1.6,0.2,2.5
				c0.6-0.5,1.3-0.7,1.9-0.8c0.6-0.1,1.3,0.2,2.2,0.7l2,1.3c0.6,0.4,1,0.6,1.4,0.7c0.6,0.2,1,0.2,1.4-0.1l0.3,0.2l-1.8,2.6
				c-0.2,0-0.4-0.1-0.6-0.2c-0.2-0.1-0.6-0.3-1.2-0.7l-2.5-1.5c-1-0.6-1.9-0.7-2.7-0.2c-0.4,0.3-1,0.8-1.5,1.7l-3.2,4.7l6.3,4.3
				l-1.4,2.1L286.6,256.2z M298,253.8c0.7-1,1-1.9,1-2.7c0-0.8-0.5-1.6-1.4-2.2c-1-0.7-2-0.8-2.9-0.3c-0.5,0.3-1,0.8-1.4,1.5l-3.4,5
				l5,3.4L298,253.8z"/>
		</g>
		<g>
			<path d="M296.8,240l1.2-2.3l15.6,8.4l-1.2,2.3L296.8,240z"/>
		</g>
		<g>
			<path d="M306.2,222.6c1.6-0.8,3.1-0.9,4.6-0.5l-0.9,2.3c-1.2-0.2-2.2,0-3.1,0.5c-0.9,0.5-1.7,1.5-2.3,2.9c-0.7,1.7-0.7,3.3,0,4.8
				c0.7,1.5,2.2,2.7,4.6,3.7c1.9,0.8,3.7,1,5.3,0.5c1.6-0.4,2.8-1.6,3.5-3.5c0.7-1.7,0.6-3.3-0.3-4.7c-0.5-0.7-1.2-1.5-2.2-2.1
				l0.9-2.3c1.6,0.9,2.8,2.2,3.5,3.8c0.8,2,0.8,4.1-0.2,6.4c-0.8,2-2.1,3.5-3.8,4.4c-2.3,1.2-5,1.1-8.2-0.2c-2.4-1-4.1-2.5-5.1-4.5
				c-1.1-2.2-1.1-4.5,0-7.1C303.4,224.8,304.7,223.4,306.2,222.6z"/>
		</g>
		<g>
			<path d="M308,212.2l0.7-2.8l18.9-2.4l-0.7,2.7l-5.6,0.6l-1.8,7.2l4.7,3.3l-0.6,2.5L308,212.2z M319.1,210.6l-8.3,0.9l6.9,4.8
				L319.1,210.6z"/>
		</g>
		<g>
			<path d="M29.7,190.3l-0.3-7.4c-0.1-2.5,0.7-4.5,2.3-5.9c1.5-1.3,3.5-2,5.9-2.1c1.9-0.1,3.6,0.2,5.1,0.9c2.7,1.2,4.2,3.3,4.3,6.4
				l0.3,7.3L29.7,190.3z M45,182.8c0-0.8-0.2-1.5-0.3-2c-0.4-0.9-1-1.7-1.9-2.2c-0.7-0.5-1.7-0.8-2.8-0.9c-0.7-0.1-1.3-0.1-1.9-0.1
				c-2.2,0.1-3.9,0.6-5.1,1.6c-1.2,0.9-1.7,2.4-1.6,4.4l0.2,4.3l13.6-0.6L45,182.8z"/>
		</g>
		<g>
			<path d="M29.2,169.7l1.2-13.3l2.2,0.2l-1,10.9l5.4,0.5l0.9-10.1l2,0.2L39,168.1l6,0.5l1-11.1l2.1,0.2l-1.2,13.5L29.2,169.7z"/>
		</g>
		<g>
			<path d="M31.2,150.9l1.8-8.1c0.4-1.6,1.1-2.8,2.2-3.6c1.1-0.8,2.4-1,4-0.7c1.4,0.3,2.4,1,3.2,2.1c0.8,1.1,1,2.5,0.6,4.3l-1.2,5.6
				l7.3,1.6l-0.5,2.4L31.2,150.9z M35.7,142c-0.4,0.5-0.6,1.2-0.9,2.1l-1.1,4.8l6,1.3l1.1-4.8c0.2-1.1,0.2-2-0.1-2.8
				c-0.3-0.8-1-1.3-2.1-1.5C37.4,140.8,36.4,141.1,35.7,142z"/>
		</g>
		<g>
			<path d="M36.9,129.5l0.9-2.7l18.9-0.5l-0.9,2.6l-5.6,0.1l-2.4,6.8l4.4,3.6l-0.8,2.4L36.9,129.5z M48.1,129l-8.3,0.1l6.4,5.4
				L48.1,129z"/>
		</g>
		<g>
			<path d="M41.8,116.1l3.8-7.5c0.6-1.2,1.3-2.2,2.1-2.8c1.4-1.2,3.1-1.3,4.9-0.4c0.9,0.5,1.6,1.1,2,1.8c0.4,0.7,0.6,1.5,0.6,2.4
				c0.6-0.5,1.1-0.8,1.7-0.9c0.6-0.1,1.3,0,2.3,0.5l2.2,1c0.6,0.3,1.1,0.5,1.4,0.5c0.6,0.1,1,0,1.3-0.2l0.4,0.2l-1.4,2.7
				c-0.2,0-0.4,0-0.6-0.1c-0.2-0.1-0.7-0.2-1.3-0.5l-2.7-1.2c-1.1-0.5-1.9-0.4-2.7,0.1c-0.4,0.3-0.8,0.9-1.3,1.8l-2.5,4.9l6.8,3.4
				l-1.1,2.2L41.8,116.1z M52.7,112.5c0.5-1,0.7-1.9,0.6-2.7c-0.1-0.8-0.7-1.5-1.7-2c-1.1-0.6-2.1-0.5-2.9,0.1
				c-0.4,0.3-0.8,0.9-1.2,1.6l-2.7,5.3l5.4,2.7L52.7,112.5z"/>
		</g>
		<g>
			<path d="M58.4,87.8l1.8,1.2l-3.5,5.2l13,8.7l-1.4,2.1l-13-8.7l-3.5,5.2l-1.7-1.2L58.4,87.8z"/>
		</g>
		<g>
			<path d="M61.1,84.4l2.4-2.7l14.7,6.1l-7.6-13.9l2.4-2.6L86.1,83l-1.6,1.8l-7.8-7c-0.3-0.2-0.7-0.6-1.3-1.2
				c-0.6-0.6-1.3-1.2-2-1.8L81,88.7l-1.7,1.8l-14.7-6l0.4,0.4c0.3,0.3,0.8,0.7,1.5,1.3s1.2,1,1.5,1.3l7.8,7l-1.6,1.8L61.1,84.4z"/>
		</g>
		<g>
			<path d="M77.4,67l10.3-8.6l1.4,1.7l-8.4,7l3.5,4.1l7.7-6.5l1.3,1.6l-7.7,6.5l3.9,4.6l8.5-7.2l1.4,1.6l-10.4,8.7L77.4,67z"/>
		</g>
		<g>
			<path d="M92,55.3l2.5-1.6l15.4,7.1l-7.7-12.1l2-1.3l9.5,15l-2.4,1.5l-15.6-7.1l7.7,12.1l-2,1.3L92,55.3z"/>
		</g>
		<g>
			<path d="M121.7,38.8l0.9,1.9l-5.6,2.6l6.7,14.1l-2.3,1.1l-6.7-14.1l-5.6,2.6l-0.9-1.9L121.7,38.8z"/>
		</g>
		<g>
			<path d="M147.9,33.4c1.6,1.2,2.7,3,3.3,5.4c0.7,2.6,0.6,4.9-0.3,6.9c-1.1,2.4-3.1,4-6,4.8c-2.7,0.7-5.1,0.4-7.2-0.9
				c-1.8-1.3-3.1-3.2-3.8-5.8c-0.6-2.3-0.5-4.5,0.2-6.4c1-2.5,3-4.2,6-5C143.3,31.5,145.9,31.9,147.9,33.4z M148.7,44.9
				c0.6-1.7,0.6-3.5,0.1-5.4c-0.5-2-1.5-3.5-2.9-4.4c-1.4-0.9-3.1-1.2-5-0.7c-1.8,0.5-3.2,1.5-4,3c-0.8,1.5-1,3.5-0.3,5.9
				c0.5,1.9,1.4,3.4,2.8,4.4c1.3,1,3.1,1.3,5.4,0.7C146.7,47.8,148.1,46.6,148.7,44.9z"/>
		</g>
		<g>
			<path d="M154.2,29.6l12.7-1.6l0.3,2.2l-10.2,1.3l0.7,5.3l9-1.1l0.3,2.1l-9,1.1l1,8l-2.5,0.3L154.2,29.6z"/>
		</g>
		<g>
			<path d="M192.2,28.1l-0.1,2.1L186,30l-0.6,15.6l-2.5-0.1l0.6-15.6l-6.2-0.2l0.1-2.1L192.2,28.1z"/>
		</g>
		<g>
			<path d="M196.7,28.6l8.3,1.3c1.4,0.2,2.5,0.6,3.3,1.1c1.6,1,2.2,2.5,1.8,4.5c-0.2,1-0.5,1.9-1.1,2.5c-0.6,0.6-1.3,1-2.2,1.3
				c0.7,0.4,1.1,0.8,1.4,1.4c0.3,0.5,0.4,1.3,0.2,2.3l-0.3,2.4c-0.1,0.7-0.1,1.2-0.1,1.5c0.1,0.6,0.3,1,0.6,1.2l-0.1,0.4l-3-0.5
				c-0.1-0.2-0.1-0.4-0.1-0.6c0-0.2,0-0.7,0.1-1.4L206,43c0.1-1.2-0.2-2-0.9-2.5c-0.4-0.3-1.1-0.5-2.1-0.7l-5.5-0.9l-1.2,7.5
				l-2.5-0.4L196.7,28.6z M203.4,37.9c1.1,0.2,2,0.1,2.8-0.2c0.7-0.3,1.2-1.1,1.4-2.2c0.2-1.2-0.1-2.2-1-2.8
				c-0.5-0.3-1.1-0.5-1.9-0.7l-5.9-1l-1,6L203.4,37.9z"/>
		</g>
		<g>
			<path d="M221.8,33.8l2.7,0.8l1.3,18.9l-2.6-0.8l-0.3-5.6L216,45l-3.4,4.5l-2.5-0.7L221.8,33.8z M222.8,45l-0.5-8.3l-5.1,6.6
				L222.8,45z"/>
		</g>
		<g>
			<path d="M234.7,38.1l2.7,1.2l2.5,16.8l5.9-13.1l2.2,1l-7.3,16.2l-2.6-1.2l-2.6-16.9l-5.9,13l-2.2-1L234.7,38.1z"/>
		</g>
		<g>
			<path d="M248.5,58.1c-0.5,0.9-0.7,1.7-0.7,2.5c0.1,1.4,0.9,2.7,2.7,3.7c0.8,0.5,1.5,0.8,2.3,1c1.5,0.3,2.6,0,3.2-1.1
				c0.5-0.8,0.6-1.6,0.3-2.2c-0.3-0.7-0.9-1.5-1.9-2.4l-1.8-1.7c-1.2-1.1-1.9-2.1-2.2-2.8c-0.6-1.2-0.5-2.5,0.3-3.7
				c0.8-1.4,2-2.2,3.5-2.4c1.5-0.3,3.1,0.1,4.8,1.2c1.6,1,2.7,2.2,3.4,3.7c0.6,1.5,0.4,3-0.6,4.7l-2-1.2c0.4-0.9,0.6-1.6,0.5-2.3
				c-0.1-1.2-0.9-2.2-2.4-3.1c-1.2-0.7-2.2-1-3.1-0.8c-0.8,0.2-1.5,0.6-1.9,1.3c-0.5,0.7-0.5,1.5-0.1,2.2c0.3,0.5,1,1.3,2.2,2.5
				l1.8,1.8c0.9,0.9,1.5,1.7,1.8,2.4c0.5,1.3,0.4,2.6-0.5,4c-1,1.7-2.4,2.5-4.1,2.4c-1.7,0-3.3-0.6-5-1.6c-1.9-1.2-3.1-2.6-3.6-4.2
				c-0.5-1.6-0.2-3.2,0.8-4.8L248.5,58.1z"/>
		</g>
		<g>
			<path d="M269.6,57.3l6.4,5.2c1.3,1,2,2.2,2.2,3.5c0.2,1.3-0.2,2.6-1.2,3.9c-0.9,1.1-2,1.7-3.3,2c-1.3,0.2-2.7-0.2-4.2-1.4
				l-4.5-3.6l-4.7,5.8l-1.9-1.6L269.6,57.3z M275.6,65.3c-0.3-0.5-0.8-1.1-1.5-1.7l-3.8-3.1l-3.9,4.8l3.8,3.1
				c0.9,0.7,1.7,1.1,2.5,1.2c0.8,0.1,1.6-0.3,2.3-1.2C275.9,67.3,276.1,66.3,275.6,65.3z"/>
		</g>
		<g>
			<path d="M292.4,82.5c-0.3,2-1.4,3.8-3.1,5.5c-1.9,1.8-4,2.8-6.3,3c-2.6,0.2-5-0.8-7-3c-1.9-2.1-2.8-4.3-2.6-6.7
				c0.3-2.2,1.4-4.3,3.3-6.1c1.8-1.6,3.7-2.6,5.8-2.8c2.7-0.3,5.1,0.6,7.2,2.9C291.9,77.5,292.8,80,292.4,82.5z M282.6,88.6
				c1.8-0.3,3.4-1.2,4.8-2.5c1.5-1.4,2.4-3,2.5-4.7c0.2-1.7-0.4-3.3-1.8-4.7c-1.3-1.4-2.8-2.1-4.6-2.1c-1.7,0-3.5,0.8-5.3,2.5
				c-1.4,1.3-2.3,2.9-2.6,4.5c-0.3,1.7,0.4,3.4,2,5.1C279.2,88.3,280.9,88.9,282.6,88.6z"/>
		</g>
		<g>
			<path d="M298.9,86.3l4.8,6.9c0.8,1.1,1.3,2.2,1.5,3.1c0.4,1.8-0.3,3.3-2,4.5c-0.9,0.6-1.7,0.9-2.5,0.9c-0.8,0-1.6-0.2-2.4-0.6
				c0.2,0.8,0.2,1.4,0,2c-0.2,0.6-0.7,1.2-1.5,1.8l-1.9,1.4c-0.5,0.4-0.9,0.7-1.1,1c-0.4,0.4-0.5,0.9-0.4,1.3l-0.3,0.2l-1.8-2.5
				c0.1-0.2,0.2-0.3,0.4-0.5c0.2-0.2,0.5-0.5,1.1-0.9l2.3-1.8c0.9-0.7,1.3-1.5,1.2-2.4c-0.1-0.5-0.4-1.2-1-2l-3.2-4.5l-6.2,4.3
				l-1.4-2L298.9,86.3z M296.8,97.6c0.7,0.9,1.4,1.5,2.1,1.8c0.7,0.3,1.6,0.1,2.6-0.6c1-0.7,1.5-1.6,1.3-2.6
				c-0.1-0.5-0.4-1.2-0.8-1.8l-3.4-4.9l-5,3.5L296.8,97.6z"/>
		</g>
		<g>
			<path d="M316,114.4l-1.9,1l-2.9-5.5l-13.8,7.3l-1.2-2.2l13.8-7.3l-2.9-5.5l1.9-1L316,114.4z"/>
		</g>
		<g>
			<path d="M318.7,121.4l1,2.6l-14.1,12.7l-1-2.5l4.2-3.7l-2.6-6.7l-5.7,0.1l-0.9-2.4L318.7,121.4z M310.5,129.1l6.3-5.5l-8.4,0.1
				L310.5,129.1z"/>
		</g>
		<g>
			<path d="M326.2,145.1l-2,0.6l-1.6-6l-15.1,4.1l-0.7-2.4l15.1-4.1l-1.6-6l2-0.5L326.2,145.1z"/>
		</g>
		<g>
			<path d="M326.8,149.4l0.4,2.5l-17.5,3.1l-0.4-2.5L326.8,149.4z"/>
		</g>
		<g>
			<path d="M327,172.6c-1.5,1.3-3.4,2.1-5.9,2.3c-2.6,0.2-4.9-0.3-6.7-1.6c-2.2-1.5-3.4-3.7-3.6-6.8c-0.2-2.8,0.5-5.1,2.2-6.9
				c1.6-1.6,3.8-2.5,6.4-2.7c2.4-0.2,4.5,0.3,6.3,1.4c2.3,1.4,3.6,3.7,3.8,6.8C329.7,168.4,328.9,170.9,327,172.6z M315.6,171.2
				c1.6,0.9,3.4,1.2,5.3,1.1c2.1-0.2,3.7-0.8,4.9-2.1c1.2-1.2,1.7-2.8,1.6-4.8c-0.1-1.9-0.9-3.4-2.2-4.5c-1.3-1.1-3.2-1.6-5.7-1.4
				c-2,0.1-3.6,0.8-4.8,1.9c-1.3,1.1-1.8,2.9-1.6,5.2C313.1,168.8,314,170.3,315.6,171.2z"/>
		</g>
		<g>
			<path d="M329.7,179.4l-0.2,2.9l-14.9,8.2l14.3,1l-0.2,2.4l-17.7-1.2l0.2-2.8l14.9-8.3l-14.3-1l0.2-2.4L329.7,179.4z"/>
		</g>
	</g>
	<path class="st5" d="M181,5.5"/>
	<path class="st5" d="M12.5,178"/>
	<path class="st5" d="M178.5,346"/>
	<path class="st5" d="M351,158.5"/>
</g>
<g id="_x31_4_x2F_25_x2F_64_x2F_0_copy" class="st1">
	<g class="st2">
		<g>
			<path class="st6" d="M50.5,208.1l-10.6,2.8c-1.2,0.3-2.2,0.9-2.9,1.6c-1,1.1-1.3,2.5-0.9,4.3c0.6,2.1,1.6,3.4,3.2,3.8
				c0.8,0.2,1.9,0.2,3.1-0.2l10.6-2.8l0.7,2.5l-9.6,2.6c-2.1,0.6-3.8,0.7-5.1,0.4c-2.4-0.6-4-2.4-4.8-5.5c-0.8-3.1-0.4-5.5,1.4-7.1
				c1-0.9,2.5-1.6,4.6-2.2l9.6-2.6L50.5,208.1z"/>
		</g>
		<g>
			<path class="st6" d="M54.8,222.9l1.2,2.8L46.6,240l13.1-5.7l1,2.2l-16.3,7.1l-1.1-2.6l9.3-14.5l-13.1,5.7l-1-2.2L54.8,222.9z"/>
		</g>
		<g>
			<path class="st6" d="M63,240.5l1.3,2.3l-15.5,8.7l-1.3-2.3L63,240.5z"/>
		</g>
		<g>
			<path class="st6" d="M74,257.3l-1.7,1.2l-3.6-5.3l-12.9,8.9l-1.5-2.1l12.9-8.9l-3.6-5.3l1.7-1.2L74,257.3z"/>
		</g>
		<g>
			<path class="st6" d="M75.2,258.9l9.2,10.2l-1.6,1.4l-7.5-8.4l-4,3.6l6.9,7.7l-1.5,1.4l-6.9-7.7l-4.5,4l7.6,8.5l-1.6,1.4L62,270.7
				L75.2,258.9z"/>
		</g>
		<g>
			<path class="st6" d="M86.5,271.3l5.8,4.9c2,1.7,2.9,3.6,2.9,5.9c0,2-0.9,3.9-2.4,5.8c-1.2,1.4-2.6,2.5-4.2,3.2
				c-2.7,1.2-5.3,0.8-7.8-1.3l-5.7-4.9L86.5,271.3z M81.7,287.8c0.6,0.6,1.2,0.9,1.8,1.2c0.9,0.4,1.9,0.4,3,0.2
				c0.8-0.2,1.7-0.7,2.6-1.4c0.5-0.4,1-0.9,1.3-1.3c1.4-1.7,2.2-3.3,2.3-4.8c0.1-1.5-0.6-2.9-2.2-4.2l-3.4-2.9l-8.8,10.4L81.7,287.8
				z"/>
		</g>
		<g>
			<path class="st6" d="M102.4,298.4c-0.4,0.9-0.6,1.7-0.6,2.5c0.1,1.4,1.1,2.6,2.9,3.7c0.8,0.5,1.6,0.8,2.4,0.9
				c1.5,0.3,2.6-0.1,3.2-1.2c0.5-0.8,0.5-1.6,0.2-2.3c-0.4-0.7-1-1.5-2.1-2.4l-1.9-1.7c-1.2-1.1-2-2-2.4-2.7
				c-0.6-1.2-0.6-2.5,0.1-3.7c0.8-1.4,1.9-2.2,3.4-2.6c1.5-0.3,3.2,0,5,1.1c1.7,1,2.9,2.2,3.6,3.6c0.7,1.4,0.6,3-0.4,4.7l-2.1-1.2
				c0.4-0.9,0.5-1.6,0.4-2.3c-0.2-1.2-1.1-2.2-2.6-3.1c-1.3-0.7-2.3-1-3.2-0.8c-0.8,0.2-1.5,0.7-1.9,1.3c-0.4,0.8-0.4,1.5,0,2.2
				c0.3,0.5,1.1,1.3,2.4,2.5l2,1.8c0.9,0.9,1.6,1.7,1.9,2.4c0.6,1.3,0.5,2.6-0.3,4c-1,1.7-2.3,2.6-4,2.6c-1.7,0-3.4-0.5-5.1-1.5
				c-2-1.1-3.3-2.5-3.9-4.1c-0.6-1.6-0.4-3.2,0.6-4.9L102.4,298.4z"/>
		</g>
		<g>
			<path class="st6" d="M134.6,300.8l-0.8,1.9l-5.9-2.5l-6,14.4l-2.4-1l6-14.4l-5.9-2.5l0.8-1.9L134.6,300.8z"/>
		</g>
		<g>
			<path class="st6" d="M140,302.1l2.8,0.8l1.6,18.9l-2.7-0.8l-0.4-5.7l-7.1-2.1l-3.5,4.5l-2.5-0.7L140,302.1z M141.1,313.3
				l-0.6-8.3l-5.1,6.7L141.1,313.3z"/>
		</g>
		<g>
			<path class="st6" d="M162.8,307.3l-0.4,2.1l-6.3-1.1l-2.8,15.4l-2.5-0.5l2.8-15.4l-6.3-1.1l0.4-2.1L162.8,307.3z"/>
		</g>
		<g>
			<path class="st6" d="M164.9,307.4l13.7,0.8l-0.1,2.2l-11.2-0.7l-0.3,5.4l10.4,0.6l-0.1,2l-10.4-0.6l-0.4,6l11.4,0.7l-0.1,2.1
				l-13.9-0.8L164.9,307.4z"/>
		</g>
		<g>
			<path class="st6" d="M184.1,320.3c0.1,1,0.4,1.8,0.9,2.4c0.9,1.1,2.4,1.6,4.4,1.5c0.9-0.1,1.8-0.2,2.5-0.5c1.4-0.6,2.1-1.5,2-2.8
				c-0.1-1-0.4-1.6-1.1-2c-0.7-0.4-1.7-0.6-3-0.9l-2.5-0.4c-1.6-0.3-2.8-0.6-3.5-1c-1.2-0.7-1.9-1.7-2-3.2c-0.1-1.6,0.4-2.9,1.5-4
				c1.1-1.1,2.7-1.7,4.8-1.8c1.9-0.1,3.6,0.2,5,1c1.4,0.8,2.2,2.2,2.3,4.2l-2.4,0.2c-0.2-0.9-0.5-1.6-0.9-2.1
				c-0.8-0.9-2.1-1.3-3.9-1.1c-1.4,0.1-2.5,0.5-3.1,1.1c-0.6,0.6-0.9,1.3-0.8,2.1c0.1,0.9,0.5,1.5,1.2,1.8c0.5,0.2,1.6,0.5,3.4,0.8
				l2.6,0.4c1.3,0.2,2.2,0.5,2.9,0.9c1.2,0.8,1.9,1.9,2,3.5c0.1,2-0.5,3.4-2,4.3c-1.4,0.9-3.1,1.5-5.1,1.6c-2.3,0.1-4.1-0.3-5.5-1.4
				c-1.4-1-2.1-2.5-2.2-4.4L184.1,320.3z"/>
		</g>
		<g>
			<path class="st6" d="M221.6,304.5c1.6,1.2,2.7,3,3.3,5.4c0.7,2.6,0.5,4.9-0.4,6.9c-1.1,2.4-3.2,4-6.2,4.8
				c-2.8,0.7-5.3,0.4-7.3-0.9c-1.9-1.3-3.1-3.3-3.8-5.8c-0.6-2.3-0.5-4.5,0.3-6.4c1-2.5,3.1-4.2,6.2-5
				C216.9,302.5,219.5,302.9,221.6,304.5z M222.2,316c0.6-1.7,0.7-3.5,0.2-5.4c-0.5-2-1.5-3.5-2.9-4.4c-1.4-0.9-3.1-1.2-5.1-0.7
				c-1.9,0.5-3.3,1.5-4.2,3c-0.9,1.5-1,3.5-0.4,5.9c0.5,1.9,1.4,3.4,2.8,4.4c1.4,1,3.2,1.3,5.5,0.7
				C220.2,318.8,221.6,317.7,222.2,316z"/>
		</g>
		<g>
			<path class="st6" d="M225.3,300.4l12.2-4.9l0.8,2l-9.8,3.9l2,5l8.6-3.5l0.8,2l-8.6,3.5l3,7.5l-2.4,1L225.3,300.4z"/>
		</g>
		<g>
			<path class="st6" d="M249.4,288.9l2.5-1.5l15.1,11.5l-2.4,1.5l-4.5-3.5l-6.3,3.9l1,5.6l-2.2,1.4L249.4,288.9z M258.5,295.6
				l-6.6-5.2l1.5,8.3L258.5,295.6z"/>
		</g>
		<g>
			<path class="st6" d="M259.2,283l2.8-2.3l13.8,8.1l-5.4-15l2.8-2.3l11.3,13.6l-1.9,1.6l-6.7-8c-0.2-0.3-0.6-0.7-1.1-1.4
				c-0.5-0.7-1.1-1.4-1.7-2.1l5.4,15l-2,1.6l-13.8-8l0.3,0.4c0.3,0.3,0.7,0.8,1.3,1.5c0.6,0.7,1,1.2,1.3,1.5l6.7,8.1l-1.9,1.6
				L259.2,283z"/>
		</g>
		<g>
			<path class="st6" d="M275.5,268.9l9.2-10.2l1.6,1.5l-7.5,8.4l4,3.6l6.9-7.7l1.5,1.4l-6.9,7.7l4.5,4l7.6-8.5l1.6,1.4l-9.3,10.4
				L275.5,268.9z"/>
		</g>
		<g>
			<path class="st6" d="M286.6,256.2l4.8-7.1c0.8-1.2,1.6-2,2.5-2.6c1.6-1,3.2-1,4.9,0.2c0.9,0.6,1.5,1.3,1.8,2
				c0.3,0.8,0.4,1.6,0.2,2.5c0.6-0.5,1.3-0.7,1.9-0.8c0.6-0.1,1.3,0.2,2.2,0.7l2,1.3c0.6,0.4,1,0.6,1.4,0.7c0.6,0.2,1,0.2,1.4-0.1
				l0.3,0.2l-1.8,2.6c-0.2,0-0.4-0.1-0.6-0.2c-0.2-0.1-0.6-0.3-1.2-0.7l-2.5-1.5c-1-0.6-1.9-0.7-2.7-0.2c-0.4,0.3-1,0.8-1.5,1.7
				l-3.2,4.7l6.3,4.3l-1.4,2.1L286.6,256.2z M298,253.8c0.7-1,1-1.9,1-2.7c0-0.8-0.5-1.6-1.4-2.2c-1-0.7-2-0.8-2.9-0.3
				c-0.5,0.3-1,0.8-1.4,1.5l-3.4,5l5,3.4L298,253.8z"/>
		</g>
		<g>
			<path class="st6" d="M296.8,240l1.2-2.3l15.6,8.4l-1.2,2.3L296.8,240z"/>
		</g>
		<g>
			<path class="st6" d="M306.2,222.6c1.6-0.8,3.1-0.9,4.6-0.5l-0.9,2.3c-1.2-0.2-2.2,0-3.1,0.5c-0.9,0.5-1.7,1.5-2.3,2.9
				c-0.7,1.7-0.7,3.3,0,4.8c0.7,1.5,2.2,2.7,4.6,3.7c1.9,0.8,3.7,1,5.3,0.5c1.6-0.4,2.8-1.6,3.5-3.5c0.7-1.7,0.6-3.3-0.3-4.7
				c-0.5-0.7-1.2-1.5-2.2-2.1l0.9-2.3c1.6,0.9,2.8,2.2,3.5,3.8c0.8,2,0.8,4.1-0.2,6.4c-0.8,2-2.1,3.5-3.8,4.4
				c-2.3,1.2-5,1.1-8.2-0.2c-2.4-1-4.1-2.5-5.1-4.5c-1.1-2.2-1.1-4.5,0-7.1C303.4,224.8,304.7,223.4,306.2,222.6z"/>
		</g>
		<g>
			<path class="st6" d="M308,212.2l0.7-2.8l18.9-2.4l-0.7,2.7l-5.6,0.6l-1.8,7.2l4.7,3.3l-0.6,2.5L308,212.2z M319.1,210.6l-8.3,0.9
				l6.9,4.8L319.1,210.6z"/>
		</g>
		<g>
			<path class="st6" d="M29.7,190.3l-0.3-7.4c-0.1-2.5,0.7-4.5,2.3-5.9c1.5-1.3,3.5-2,5.9-2.1c1.9-0.1,3.6,0.2,5.1,0.9
				c2.7,1.2,4.2,3.3,4.3,6.4l0.3,7.3L29.7,190.3z M45,182.8c0-0.8-0.2-1.5-0.3-2c-0.4-0.9-1-1.7-1.9-2.2c-0.7-0.5-1.7-0.8-2.8-0.9
				c-0.7-0.1-1.3-0.1-1.9-0.1c-2.2,0.1-3.9,0.6-5.1,1.6c-1.2,0.9-1.7,2.4-1.6,4.4l0.2,4.3l13.6-0.6L45,182.8z"/>
		</g>
		<g>
			<path class="st6" d="M29.2,169.7l1.2-13.3l2.2,0.2l-1,10.9l5.4,0.5l0.9-10.1l2,0.2L39,168.1l6,0.5l1-11.1l2.1,0.2l-1.2,13.5
				L29.2,169.7z"/>
		</g>
		<g>
			<path class="st6" d="M31.2,150.9l1.8-8.1c0.4-1.6,1.1-2.8,2.2-3.6c1.1-0.8,2.4-1,4-0.7c1.4,0.3,2.4,1,3.2,2.1
				c0.8,1.1,1,2.5,0.6,4.3l-1.2,5.6l7.3,1.6l-0.5,2.4L31.2,150.9z M35.7,142c-0.4,0.5-0.6,1.2-0.9,2.1l-1.1,4.8l6,1.3l1.1-4.8
				c0.2-1.1,0.2-2-0.1-2.8c-0.3-0.8-1-1.3-2.1-1.5C37.4,140.8,36.4,141.1,35.7,142z"/>
		</g>
		<g>
			<path class="st6" d="M36.9,129.5l0.9-2.7l18.9-0.5l-0.9,2.6l-5.6,0.1l-2.4,6.8l4.4,3.6l-0.8,2.4L36.9,129.5z M48.1,129l-8.3,0.1
				l6.4,5.4L48.1,129z"/>
		</g>
		<g>
			<path class="st6" d="M41.8,116.1l3.8-7.5c0.6-1.2,1.3-2.2,2.1-2.8c1.4-1.2,3.1-1.3,4.9-0.4c0.9,0.5,1.6,1.1,2,1.8
				c0.4,0.7,0.6,1.5,0.6,2.4c0.6-0.5,1.1-0.8,1.7-0.9c0.6-0.1,1.3,0,2.3,0.5l2.2,1c0.6,0.3,1.1,0.5,1.4,0.5c0.6,0.1,1,0,1.3-0.2
				l0.4,0.2l-1.4,2.7c-0.2,0-0.4,0-0.6-0.1c-0.2-0.1-0.7-0.2-1.3-0.5l-2.7-1.2c-1.1-0.5-1.9-0.4-2.7,0.1c-0.4,0.3-0.8,0.9-1.3,1.8
				l-2.5,4.9l6.8,3.4l-1.1,2.2L41.8,116.1z M52.7,112.5c0.5-1,0.7-1.9,0.6-2.7c-0.1-0.8-0.7-1.5-1.7-2c-1.1-0.6-2.1-0.5-2.9,0.1
				c-0.4,0.3-0.8,0.9-1.2,1.6l-2.7,5.3l5.4,2.7L52.7,112.5z"/>
		</g>
		<g>
			<path class="st6" d="M58.4,87.8l1.8,1.2l-3.5,5.2l13,8.7l-1.4,2.1l-13-8.7l-3.5,5.2l-1.7-1.2L58.4,87.8z"/>
		</g>
		<g>
			<path class="st6" d="M61.1,84.4l2.4-2.7l14.7,6.1l-7.6-13.9l2.4-2.6L86.1,83l-1.6,1.8l-7.8-7c-0.3-0.2-0.7-0.6-1.3-1.2
				c-0.6-0.6-1.3-1.2-2-1.8L81,88.7l-1.7,1.8l-14.7-6l0.4,0.4c0.3,0.3,0.8,0.7,1.5,1.3s1.2,1,1.5,1.3l7.8,7l-1.6,1.8L61.1,84.4z"/>
		</g>
		<g>
			<path class="st6" d="M77.4,67l10.3-8.6l1.4,1.7l-8.4,7l3.5,4.1l7.7-6.5l1.3,1.6l-7.7,6.5l3.9,4.6l8.5-7.2l1.4,1.6l-10.4,8.7
				L77.4,67z"/>
		</g>
		<g>
			<path class="st6" d="M92,55.3l2.5-1.6l15.4,7.1l-7.7-12.1l2-1.3l9.5,15l-2.4,1.5l-15.6-7.1l7.7,12.1l-2,1.3L92,55.3z"/>
		</g>
		<g>
			<path class="st6" d="M121.7,38.8l0.9,1.9l-5.6,2.6l6.7,14.1l-2.3,1.1l-6.7-14.1l-5.6,2.6l-0.9-1.9L121.7,38.8z"/>
		</g>
		<g>
			<path class="st6" d="M147.9,33.4c1.6,1.2,2.7,3,3.3,5.4c0.7,2.6,0.6,4.9-0.3,6.9c-1.1,2.4-3.1,4-6,4.8c-2.7,0.7-5.1,0.4-7.2-0.9
				c-1.8-1.3-3.1-3.2-3.8-5.8c-0.6-2.3-0.5-4.5,0.2-6.4c1-2.5,3-4.2,6-5C143.3,31.5,145.9,31.9,147.9,33.4z M148.7,44.9
				c0.6-1.7,0.6-3.5,0.1-5.4c-0.5-2-1.5-3.5-2.9-4.4c-1.4-0.9-3.1-1.2-5-0.7c-1.8,0.5-3.2,1.5-4,3c-0.8,1.5-1,3.5-0.3,5.9
				c0.5,1.9,1.4,3.4,2.8,4.4c1.3,1,3.1,1.3,5.4,0.7C146.7,47.8,148.1,46.6,148.7,44.9z"/>
		</g>
		<g>
			<path class="st6" d="M154.2,29.6l12.7-1.6l0.3,2.2l-10.2,1.3l0.7,5.3l9-1.1l0.3,2.1l-9,1.1l1,8l-2.5,0.3L154.2,29.6z"/>
		</g>
		<g>
			<path class="st6" d="M192.2,28.1l-0.1,2.1L186,30l-0.6,15.6l-2.5-0.1l0.6-15.6l-6.2-0.2l0.1-2.1L192.2,28.1z"/>
		</g>
		<g>
			<path class="st6" d="M196.7,28.6l8.3,1.3c1.4,0.2,2.5,0.6,3.3,1.1c1.6,1,2.2,2.5,1.8,4.5c-0.2,1-0.5,1.9-1.1,2.5
				c-0.6,0.6-1.3,1-2.2,1.3c0.7,0.4,1.1,0.8,1.4,1.4c0.3,0.5,0.4,1.3,0.2,2.3l-0.3,2.4c-0.1,0.7-0.1,1.2-0.1,1.5
				c0.1,0.6,0.3,1,0.6,1.2l-0.1,0.4l-3-0.5c-0.1-0.2-0.1-0.4-0.1-0.6c0-0.2,0-0.7,0.1-1.4L206,43c0.1-1.2-0.2-2-0.9-2.5
				c-0.4-0.3-1.1-0.5-2.1-0.7l-5.5-0.9l-1.2,7.5l-2.5-0.4L196.7,28.6z M203.4,37.9c1.1,0.2,2,0.1,2.8-0.2c0.7-0.3,1.2-1.1,1.4-2.2
				c0.2-1.2-0.1-2.2-1-2.8c-0.5-0.3-1.1-0.5-1.9-0.7l-5.9-1l-1,6L203.4,37.9z"/>
		</g>
		<g>
			<path class="st6" d="M221.8,33.8l2.7,0.8l1.3,18.9l-2.6-0.8l-0.3-5.6L216,45l-3.4,4.5l-2.5-0.7L221.8,33.8z M222.8,45l-0.5-8.3
				l-5.1,6.6L222.8,45z"/>
		</g>
		<g>
			<path class="st6" d="M234.7,38.1l2.7,1.2l2.5,16.8l5.9-13.1l2.2,1l-7.3,16.2l-2.6-1.2l-2.6-16.9l-5.9,13l-2.2-1L234.7,38.1z"/>
		</g>
		<g>
			<path class="st6" d="M248.5,58.1c-0.5,0.9-0.7,1.7-0.7,2.5c0.1,1.4,0.9,2.7,2.7,3.7c0.8,0.5,1.5,0.8,2.3,1c1.5,0.3,2.6,0,3.2-1.1
				c0.5-0.8,0.6-1.6,0.3-2.2c-0.3-0.7-0.9-1.5-1.9-2.4l-1.8-1.7c-1.2-1.1-1.9-2.1-2.2-2.8c-0.6-1.2-0.5-2.5,0.3-3.7
				c0.8-1.4,2-2.2,3.5-2.4c1.5-0.3,3.1,0.1,4.8,1.2c1.6,1,2.7,2.2,3.4,3.7c0.6,1.5,0.4,3-0.6,4.7l-2-1.2c0.4-0.9,0.6-1.6,0.5-2.3
				c-0.1-1.2-0.9-2.2-2.4-3.1c-1.2-0.7-2.2-1-3.1-0.8c-0.8,0.2-1.5,0.6-1.9,1.3c-0.5,0.7-0.5,1.5-0.1,2.2c0.3,0.5,1,1.3,2.2,2.5
				l1.8,1.8c0.9,0.9,1.5,1.7,1.8,2.4c0.5,1.3,0.4,2.6-0.5,4c-1,1.7-2.4,2.5-4.1,2.4c-1.7,0-3.3-0.6-5-1.6c-1.9-1.2-3.1-2.6-3.6-4.2
				c-0.5-1.6-0.2-3.2,0.8-4.8L248.5,58.1z"/>
		</g>
		<g>
			<path class="st6" d="M269.6,57.3l6.4,5.2c1.3,1,2,2.2,2.2,3.5c0.2,1.3-0.2,2.6-1.2,3.9c-0.9,1.1-2,1.7-3.3,2
				c-1.3,0.2-2.7-0.2-4.2-1.4l-4.5-3.6l-4.7,5.8l-1.9-1.6L269.6,57.3z M275.6,65.3c-0.3-0.5-0.8-1.1-1.5-1.7l-3.8-3.1l-3.9,4.8
				l3.8,3.1c0.9,0.7,1.7,1.1,2.5,1.2c0.8,0.1,1.6-0.3,2.3-1.2C275.9,67.3,276.1,66.3,275.6,65.3z"/>
		</g>
		<g>
			<path class="st6" d="M292.4,82.5c-0.3,2-1.4,3.8-3.1,5.5c-1.9,1.8-4,2.8-6.3,3c-2.6,0.2-5-0.8-7-3c-1.9-2.1-2.8-4.3-2.6-6.7
				c0.3-2.2,1.4-4.3,3.3-6.1c1.8-1.6,3.7-2.6,5.8-2.8c2.7-0.3,5.1,0.6,7.2,2.9C291.9,77.5,292.8,80,292.4,82.5z M282.6,88.6
				c1.8-0.3,3.4-1.2,4.8-2.5c1.5-1.4,2.4-3,2.5-4.7c0.2-1.7-0.4-3.3-1.8-4.7c-1.3-1.4-2.8-2.1-4.6-2.1c-1.7,0-3.5,0.8-5.3,2.5
				c-1.4,1.3-2.3,2.9-2.6,4.5c-0.3,1.7,0.4,3.4,2,5.1C279.2,88.3,280.9,88.9,282.6,88.6z"/>
		</g>
		<g>
			<path class="st6" d="M298.9,86.3l4.8,6.9c0.8,1.1,1.3,2.2,1.5,3.1c0.4,1.8-0.3,3.3-2,4.5c-0.9,0.6-1.7,0.9-2.5,0.9
				c-0.8,0-1.6-0.2-2.4-0.6c0.2,0.8,0.2,1.4,0,2c-0.2,0.6-0.7,1.2-1.5,1.8l-1.9,1.4c-0.5,0.4-0.9,0.7-1.1,1
				c-0.4,0.4-0.5,0.9-0.4,1.3l-0.3,0.2l-1.8-2.5c0.1-0.2,0.2-0.3,0.4-0.5c0.2-0.2,0.5-0.5,1.1-0.9l2.3-1.8c0.9-0.7,1.3-1.5,1.2-2.4
				c-0.1-0.5-0.4-1.2-1-2l-3.2-4.5l-6.2,4.3l-1.4-2L298.9,86.3z M296.8,97.6c0.7,0.9,1.4,1.5,2.1,1.8c0.7,0.3,1.6,0.1,2.6-0.6
				c1-0.7,1.5-1.6,1.3-2.6c-0.1-0.5-0.4-1.2-0.8-1.8l-3.4-4.9l-5,3.5L296.8,97.6z"/>
		</g>
		<g>
			<path class="st6" d="M316,114.4l-1.9,1l-2.9-5.5l-13.8,7.3l-1.2-2.2l13.8-7.3l-2.9-5.5l1.9-1L316,114.4z"/>
		</g>
		<g>
			<path class="st6" d="M318.7,121.4l1,2.6l-14.1,12.7l-1-2.5l4.2-3.7l-2.6-6.7l-5.7,0.1l-0.9-2.4L318.7,121.4z M310.5,129.1
				l6.3-5.5l-8.4,0.1L310.5,129.1z"/>
		</g>
		<g>
			<path class="st6" d="M326.2,145.1l-2,0.6l-1.6-6l-15.1,4.1l-0.7-2.4l15.1-4.1l-1.6-6l2-0.5L326.2,145.1z"/>
		</g>
		<g>
			<path class="st6" d="M326.8,149.4l0.4,2.5l-17.5,3.1l-0.4-2.5L326.8,149.4z"/>
		</g>
		<g>
			<path class="st6" d="M327,172.6c-1.5,1.3-3.4,2.1-5.9,2.3c-2.6,0.2-4.9-0.3-6.7-1.6c-2.2-1.5-3.4-3.7-3.6-6.8
				c-0.2-2.8,0.5-5.1,2.2-6.9c1.6-1.6,3.8-2.5,6.4-2.7c2.4-0.2,4.5,0.3,6.3,1.4c2.3,1.4,3.6,3.7,3.8,6.8
				C329.7,168.4,328.9,170.9,327,172.6z M315.6,171.2c1.6,0.9,3.4,1.2,5.3,1.1c2.1-0.2,3.7-0.8,4.9-2.1c1.2-1.2,1.7-2.8,1.6-4.8
				c-0.1-1.9-0.9-3.4-2.2-4.5c-1.3-1.1-3.2-1.6-5.7-1.4c-2,0.1-3.6,0.8-4.8,1.9c-1.3,1.1-1.8,2.9-1.6,5.2
				C313.1,168.8,314,170.3,315.6,171.2z"/>
		</g>
		<g>
			<path class="st6" d="M329.7,179.4l-0.2,2.9l-14.9,8.2l14.3,1l-0.2,2.4l-17.7-1.2l0.2-2.8l14.9-8.3l-14.3-1l0.2-2.4L329.7,179.4z"
				/>
		</g>
	</g>
	<path class="st3" d="M181,5.5"/>
	<path class="st3" d="M12.5,178"/>
	<path class="st3" d="M178.5,346"/>
	<path class="st3" d="M351,158.5"/>
</g>
<g id="_x31_0_x2F_19_x2F_48_x2F_0" class="st1">
	<g class="st2">
		<g>
			<path class="st7" d="M50.5,208.1l-10.6,2.8c-1.2,0.3-2.2,0.9-2.9,1.6c-1,1.1-1.3,2.5-0.9,4.3c0.6,2.1,1.6,3.4,3.2,3.8
				c0.8,0.2,1.9,0.2,3.1-0.2l10.6-2.8l0.7,2.5l-9.6,2.6c-2.1,0.6-3.8,0.7-5.1,0.4c-2.4-0.6-4-2.4-4.8-5.5c-0.8-3.1-0.4-5.5,1.4-7.1
				c1-0.9,2.5-1.6,4.6-2.2l9.6-2.6L50.5,208.1z"/>
		</g>
		<g>
			<path class="st7" d="M54.8,222.9l1.2,2.8L46.6,240l13.1-5.7l1,2.2l-16.3,7.1l-1.1-2.6l9.3-14.5l-13.1,5.7l-1-2.2L54.8,222.9z"/>
		</g>
		<g>
			<path class="st7" d="M63,240.5l1.3,2.3l-15.5,8.7l-1.3-2.3L63,240.5z"/>
		</g>
		<g>
			<path class="st7" d="M74,257.3l-1.7,1.2l-3.6-5.3l-12.9,8.9l-1.5-2.1l12.9-8.9l-3.6-5.3l1.7-1.2L74,257.3z"/>
		</g>
		<g>
			<path class="st7" d="M75.2,258.9l9.2,10.2l-1.6,1.4l-7.5-8.4l-4,3.6l6.9,7.7l-1.5,1.4l-6.9-7.7l-4.5,4l7.6,8.5l-1.6,1.4L62,270.7
				L75.2,258.9z"/>
		</g>
		<g>
			<path class="st7" d="M86.5,271.3l5.8,4.9c2,1.7,2.9,3.6,2.9,5.9c0,2-0.9,3.9-2.4,5.8c-1.2,1.4-2.6,2.5-4.2,3.2
				c-2.7,1.2-5.3,0.8-7.8-1.3l-5.7-4.9L86.5,271.3z M81.7,287.8c0.6,0.6,1.2,0.9,1.8,1.2c0.9,0.4,1.9,0.4,3,0.2
				c0.8-0.2,1.7-0.7,2.6-1.4c0.5-0.4,1-0.9,1.3-1.3c1.4-1.7,2.2-3.3,2.3-4.8c0.1-1.5-0.6-2.9-2.2-4.2l-3.4-2.9l-8.8,10.4L81.7,287.8
				z"/>
		</g>
		<g>
			<path class="st7" d="M102.4,298.4c-0.4,0.9-0.6,1.7-0.6,2.5c0.1,1.4,1.1,2.6,2.9,3.7c0.8,0.5,1.6,0.8,2.4,0.9
				c1.5,0.3,2.6-0.1,3.2-1.2c0.5-0.8,0.5-1.6,0.2-2.3c-0.4-0.7-1-1.5-2.1-2.4l-1.9-1.7c-1.2-1.1-2-2-2.4-2.7
				c-0.6-1.2-0.6-2.5,0.1-3.7c0.8-1.4,1.9-2.2,3.4-2.6c1.5-0.3,3.2,0,5,1.1c1.7,1,2.9,2.2,3.6,3.6c0.7,1.4,0.6,3-0.4,4.7l-2.1-1.2
				c0.4-0.9,0.5-1.6,0.4-2.3c-0.2-1.2-1.1-2.2-2.6-3.1c-1.3-0.7-2.3-1-3.2-0.8c-0.8,0.2-1.5,0.7-1.9,1.3c-0.4,0.8-0.4,1.5,0,2.2
				c0.3,0.5,1.1,1.3,2.4,2.5l2,1.8c0.9,0.9,1.6,1.7,1.9,2.4c0.6,1.3,0.5,2.6-0.3,4c-1,1.7-2.3,2.6-4,2.6c-1.7,0-3.4-0.5-5.1-1.5
				c-2-1.1-3.3-2.5-3.9-4.1c-0.6-1.6-0.4-3.2,0.6-4.9L102.4,298.4z"/>
		</g>
		<g>
			<path class="st7" d="M134.6,300.8l-0.8,1.9l-5.9-2.5l-6,14.4l-2.4-1l6-14.4l-5.9-2.5l0.8-1.9L134.6,300.8z"/>
		</g>
		<g>
			<path class="st7" d="M140,302.1l2.8,0.8l1.6,18.9l-2.7-0.8l-0.4-5.7l-7.1-2.1l-3.5,4.5l-2.5-0.7L140,302.1z M141.1,313.3
				l-0.6-8.3l-5.1,6.7L141.1,313.3z"/>
		</g>
		<g>
			<path class="st7" d="M162.8,307.3l-0.4,2.1l-6.3-1.1l-2.8,15.4l-2.5-0.5l2.8-15.4l-6.3-1.1l0.4-2.1L162.8,307.3z"/>
		</g>
		<g>
			<path class="st7" d="M164.9,307.4l13.7,0.8l-0.1,2.2l-11.2-0.7l-0.3,5.4l10.4,0.6l-0.1,2l-10.4-0.6l-0.4,6l11.4,0.7l-0.1,2.1
				l-13.9-0.8L164.9,307.4z"/>
		</g>
		<g>
			<path class="st7" d="M184.1,320.3c0.1,1,0.4,1.8,0.9,2.4c0.9,1.1,2.4,1.6,4.4,1.5c0.9-0.1,1.8-0.2,2.5-0.5c1.4-0.6,2.1-1.5,2-2.8
				c-0.1-1-0.4-1.6-1.1-2c-0.7-0.4-1.7-0.6-3-0.9l-2.5-0.4c-1.6-0.3-2.8-0.6-3.5-1c-1.2-0.7-1.9-1.7-2-3.2c-0.1-1.6,0.4-2.9,1.5-4
				c1.1-1.1,2.7-1.7,4.8-1.8c1.9-0.1,3.6,0.2,5,1c1.4,0.8,2.2,2.2,2.3,4.2l-2.4,0.2c-0.2-0.9-0.5-1.6-0.9-2.1
				c-0.8-0.9-2.1-1.3-3.9-1.1c-1.4,0.1-2.5,0.5-3.1,1.1c-0.6,0.6-0.9,1.3-0.8,2.1c0.1,0.9,0.5,1.5,1.2,1.8c0.5,0.2,1.6,0.5,3.4,0.8
				l2.6,0.4c1.3,0.2,2.2,0.5,2.9,0.9c1.2,0.8,1.9,1.9,2,3.5c0.1,2-0.5,3.4-2,4.3c-1.4,0.9-3.1,1.5-5.1,1.6c-2.3,0.1-4.1-0.3-5.5-1.4
				c-1.4-1-2.1-2.5-2.2-4.4L184.1,320.3z"/>
		</g>
		<g>
			<path class="st7" d="M221.6,304.5c1.6,1.2,2.7,3,3.3,5.4c0.7,2.6,0.5,4.9-0.4,6.9c-1.1,2.4-3.2,4-6.2,4.8
				c-2.8,0.7-5.3,0.4-7.3-0.9c-1.9-1.3-3.1-3.3-3.8-5.8c-0.6-2.3-0.5-4.5,0.3-6.4c1-2.5,3.1-4.2,6.2-5
				C216.9,302.5,219.5,302.9,221.6,304.5z M222.2,316c0.6-1.7,0.7-3.5,0.2-5.4c-0.5-2-1.5-3.5-2.9-4.4c-1.4-0.9-3.1-1.2-5.1-0.7
				c-1.9,0.5-3.3,1.5-4.2,3c-0.9,1.5-1,3.5-0.4,5.9c0.5,1.9,1.4,3.4,2.8,4.4c1.4,1,3.2,1.3,5.5,0.7
				C220.2,318.8,221.6,317.7,222.2,316z"/>
		</g>
		<g>
			<path class="st7" d="M225.3,300.4l12.2-4.9l0.8,2l-9.8,3.9l2,5l8.6-3.5l0.8,2l-8.6,3.5l3,7.5l-2.4,1L225.3,300.4z"/>
		</g>
		<g>
			<path class="st7" d="M249.4,288.9l2.5-1.5l15.1,11.5l-2.4,1.5l-4.5-3.5l-6.3,3.9l1,5.6l-2.2,1.4L249.4,288.9z M258.5,295.6
				l-6.6-5.2l1.5,8.3L258.5,295.6z"/>
		</g>
		<g>
			<path class="st7" d="M259.2,283l2.8-2.3l13.8,8.1l-5.4-15l2.8-2.3l11.3,13.6l-1.9,1.6l-6.7-8c-0.2-0.3-0.6-0.7-1.1-1.4
				c-0.5-0.7-1.1-1.4-1.7-2.1l5.4,15l-2,1.6l-13.8-8l0.3,0.4c0.3,0.3,0.7,0.8,1.3,1.5c0.6,0.7,1,1.2,1.3,1.5l6.7,8.1l-1.9,1.6
				L259.2,283z"/>
		</g>
		<g>
			<path class="st7" d="M275.5,268.9l9.2-10.2l1.6,1.5l-7.5,8.4l4,3.6l6.9-7.7l1.5,1.4l-6.9,7.7l4.5,4l7.6-8.5l1.6,1.4l-9.3,10.4
				L275.5,268.9z"/>
		</g>
		<g>
			<path class="st7" d="M286.6,256.2l4.8-7.1c0.8-1.2,1.6-2,2.5-2.6c1.6-1,3.2-1,4.9,0.2c0.9,0.6,1.5,1.3,1.8,2
				c0.3,0.8,0.4,1.6,0.2,2.5c0.6-0.5,1.3-0.7,1.9-0.8c0.6-0.1,1.3,0.2,2.2,0.7l2,1.3c0.6,0.4,1,0.6,1.4,0.7c0.6,0.2,1,0.2,1.4-0.1
				l0.3,0.2l-1.8,2.6c-0.2,0-0.4-0.1-0.6-0.2c-0.2-0.1-0.6-0.3-1.2-0.7l-2.5-1.5c-1-0.6-1.9-0.7-2.7-0.2c-0.4,0.3-1,0.8-1.5,1.7
				l-3.2,4.7l6.3,4.3l-1.4,2.1L286.6,256.2z M298,253.8c0.7-1,1-1.9,1-2.7c0-0.8-0.5-1.6-1.4-2.2c-1-0.7-2-0.8-2.9-0.3
				c-0.5,0.3-1,0.8-1.4,1.5l-3.4,5l5,3.4L298,253.8z"/>
		</g>
		<g>
			<path class="st7" d="M296.8,240l1.2-2.3l15.6,8.4l-1.2,2.3L296.8,240z"/>
		</g>
		<g>
			<path class="st7" d="M306.2,222.6c1.6-0.8,3.1-0.9,4.6-0.5l-0.9,2.3c-1.2-0.2-2.2,0-3.1,0.5c-0.9,0.5-1.7,1.5-2.3,2.9
				c-0.7,1.7-0.7,3.3,0,4.8c0.7,1.5,2.2,2.7,4.6,3.7c1.9,0.8,3.7,1,5.3,0.5c1.6-0.4,2.8-1.6,3.5-3.5c0.7-1.7,0.6-3.3-0.3-4.7
				c-0.5-0.7-1.2-1.5-2.2-2.1l0.9-2.3c1.6,0.9,2.8,2.2,3.5,3.8c0.8,2,0.8,4.1-0.2,6.4c-0.8,2-2.1,3.5-3.8,4.4
				c-2.3,1.2-5,1.1-8.2-0.2c-2.4-1-4.1-2.5-5.1-4.5c-1.1-2.2-1.1-4.5,0-7.1C303.4,224.8,304.7,223.4,306.2,222.6z"/>
		</g>
		<g>
			<path class="st7" d="M308,212.2l0.7-2.8l18.9-2.4l-0.7,2.7l-5.6,0.6l-1.8,7.2l4.7,3.3l-0.6,2.5L308,212.2z M319.1,210.6l-8.3,0.9
				l6.9,4.8L319.1,210.6z"/>
		</g>
		<g>
			<path class="st7" d="M29.7,190.3l-0.3-7.4c-0.1-2.5,0.7-4.5,2.3-5.9c1.5-1.3,3.5-2,5.9-2.1c1.9-0.1,3.6,0.2,5.1,0.9
				c2.7,1.2,4.2,3.3,4.3,6.4l0.3,7.3L29.7,190.3z M45,182.8c0-0.8-0.2-1.5-0.3-2c-0.4-0.9-1-1.7-1.9-2.2c-0.7-0.5-1.7-0.8-2.8-0.9
				c-0.7-0.1-1.3-0.1-1.9-0.1c-2.2,0.1-3.9,0.6-5.1,1.6c-1.2,0.9-1.7,2.4-1.6,4.4l0.2,4.3l13.6-0.6L45,182.8z"/>
		</g>
		<g>
			<path class="st7" d="M29.2,169.7l1.2-13.3l2.2,0.2l-1,10.9l5.4,0.5l0.9-10.1l2,0.2L39,168.1l6,0.5l1-11.1l2.1,0.2l-1.2,13.5
				L29.2,169.7z"/>
		</g>
		<g>
			<path class="st7" d="M31.2,150.9l1.8-8.1c0.4-1.6,1.1-2.8,2.2-3.6c1.1-0.8,2.4-1,4-0.7c1.4,0.3,2.4,1,3.2,2.1
				c0.8,1.1,1,2.5,0.6,4.3l-1.2,5.6l7.3,1.6l-0.5,2.4L31.2,150.9z M35.7,142c-0.4,0.5-0.6,1.2-0.9,2.1l-1.1,4.8l6,1.3l1.1-4.8
				c0.2-1.1,0.2-2-0.1-2.8c-0.3-0.8-1-1.3-2.1-1.5C37.4,140.8,36.4,141.1,35.7,142z"/>
		</g>
		<g>
			<path class="st7" d="M36.9,129.5l0.9-2.7l18.9-0.5l-0.9,2.6l-5.6,0.1l-2.4,6.8l4.4,3.6l-0.8,2.4L36.9,129.5z M48.1,129l-8.3,0.1
				l6.4,5.4L48.1,129z"/>
		</g>
		<g>
			<path class="st7" d="M41.8,116.1l3.8-7.5c0.6-1.2,1.3-2.2,2.1-2.8c1.4-1.2,3.1-1.3,4.9-0.4c0.9,0.5,1.6,1.1,2,1.8
				c0.4,0.7,0.6,1.5,0.6,2.4c0.6-0.5,1.1-0.8,1.7-0.9c0.6-0.1,1.3,0,2.3,0.5l2.2,1c0.6,0.3,1.1,0.5,1.4,0.5c0.6,0.1,1,0,1.3-0.2
				l0.4,0.2l-1.4,2.7c-0.2,0-0.4,0-0.6-0.1c-0.2-0.1-0.7-0.2-1.3-0.5l-2.7-1.2c-1.1-0.5-1.9-0.4-2.7,0.1c-0.4,0.3-0.8,0.9-1.3,1.8
				l-2.5,4.9l6.8,3.4l-1.1,2.2L41.8,116.1z M52.7,112.5c0.5-1,0.7-1.9,0.6-2.7c-0.1-0.8-0.7-1.5-1.7-2c-1.1-0.6-2.1-0.5-2.9,0.1
				c-0.4,0.3-0.8,0.9-1.2,1.6l-2.7,5.3l5.4,2.7L52.7,112.5z"/>
		</g>
		<g>
			<path class="st7" d="M58.4,87.8l1.8,1.2l-3.5,5.2l13,8.7l-1.4,2.1l-13-8.7l-3.5,5.2l-1.7-1.2L58.4,87.8z"/>
		</g>
		<g>
			<path class="st7" d="M61.1,84.4l2.4-2.7l14.7,6.1l-7.6-13.9l2.4-2.6L86.1,83l-1.6,1.8l-7.8-7c-0.3-0.2-0.7-0.6-1.3-1.2
				c-0.6-0.6-1.3-1.2-2-1.8L81,88.7l-1.7,1.8l-14.7-6l0.4,0.4c0.3,0.3,0.8,0.7,1.5,1.3s1.2,1,1.5,1.3l7.8,7l-1.6,1.8L61.1,84.4z"/>
		</g>
		<g>
			<path class="st7" d="M77.4,67l10.3-8.6l1.4,1.7l-8.4,7l3.5,4.1l7.7-6.5l1.3,1.6l-7.7,6.5l3.9,4.6l8.5-7.2l1.4,1.6l-10.4,8.7
				L77.4,67z"/>
		</g>
		<g>
			<path class="st7" d="M92,55.3l2.5-1.6l15.4,7.1l-7.7-12.1l2-1.3l9.5,15l-2.4,1.5l-15.6-7.1l7.7,12.1l-2,1.3L92,55.3z"/>
		</g>
		<g>
			<path class="st7" d="M121.7,38.8l0.9,1.9l-5.6,2.6l6.7,14.1l-2.3,1.1l-6.7-14.1l-5.6,2.6l-0.9-1.9L121.7,38.8z"/>
		</g>
		<g>
			<path class="st7" d="M147.9,33.4c1.6,1.2,2.7,3,3.3,5.4c0.7,2.6,0.6,4.9-0.3,6.9c-1.1,2.4-3.1,4-6,4.8c-2.7,0.7-5.1,0.4-7.2-0.9
				c-1.8-1.3-3.1-3.2-3.8-5.8c-0.6-2.3-0.5-4.5,0.2-6.4c1-2.5,3-4.2,6-5C143.3,31.5,145.9,31.9,147.9,33.4z M148.7,44.9
				c0.6-1.7,0.6-3.5,0.1-5.4c-0.5-2-1.5-3.5-2.9-4.4c-1.4-0.9-3.1-1.2-5-0.7c-1.8,0.5-3.2,1.5-4,3c-0.8,1.5-1,3.5-0.3,5.9
				c0.5,1.9,1.4,3.4,2.8,4.4c1.3,1,3.1,1.3,5.4,0.7C146.7,47.8,148.1,46.6,148.7,44.9z"/>
		</g>
		<g>
			<path class="st7" d="M154.2,29.6l12.7-1.6l0.3,2.2l-10.2,1.3l0.7,5.3l9-1.1l0.3,2.1l-9,1.1l1,8l-2.5,0.3L154.2,29.6z"/>
		</g>
		<g>
			<path class="st7" d="M192.2,28.1l-0.1,2.1L186,30l-0.6,15.6l-2.5-0.1l0.6-15.6l-6.2-0.2l0.1-2.1L192.2,28.1z"/>
		</g>
		<g>
			<path class="st7" d="M196.7,28.6l8.3,1.3c1.4,0.2,2.5,0.6,3.3,1.1c1.6,1,2.2,2.5,1.8,4.5c-0.2,1-0.5,1.9-1.1,2.5
				c-0.6,0.6-1.3,1-2.2,1.3c0.7,0.4,1.1,0.8,1.4,1.4c0.3,0.5,0.4,1.3,0.2,2.3l-0.3,2.4c-0.1,0.7-0.1,1.2-0.1,1.5
				c0.1,0.6,0.3,1,0.6,1.2l-0.1,0.4l-3-0.5c-0.1-0.2-0.1-0.4-0.1-0.6c0-0.2,0-0.7,0.1-1.4L206,43c0.1-1.2-0.2-2-0.9-2.5
				c-0.4-0.3-1.1-0.5-2.1-0.7l-5.5-0.9l-1.2,7.5l-2.5-0.4L196.7,28.6z M203.4,37.9c1.1,0.2,2,0.1,2.8-0.2c0.7-0.3,1.2-1.1,1.4-2.2
				c0.2-1.2-0.1-2.2-1-2.8c-0.5-0.3-1.1-0.5-1.9-0.7l-5.9-1l-1,6L203.4,37.9z"/>
		</g>
		<g>
			<path class="st7" d="M221.8,33.8l2.7,0.8l1.3,18.9l-2.6-0.8l-0.3-5.6L216,45l-3.4,4.5l-2.5-0.7L221.8,33.8z M222.8,45l-0.5-8.3
				l-5.1,6.6L222.8,45z"/>
		</g>
		<g>
			<path class="st7" d="M234.7,38.1l2.7,1.2l2.5,16.8l5.9-13.1l2.2,1l-7.3,16.2l-2.6-1.2l-2.6-16.9l-5.9,13l-2.2-1L234.7,38.1z"/>
		</g>
		<g>
			<path class="st7" d="M248.5,58.1c-0.5,0.9-0.7,1.7-0.7,2.5c0.1,1.4,0.9,2.7,2.7,3.7c0.8,0.5,1.5,0.8,2.3,1c1.5,0.3,2.6,0,3.2-1.1
				c0.5-0.8,0.6-1.6,0.3-2.2c-0.3-0.7-0.9-1.5-1.9-2.4l-1.8-1.7c-1.2-1.1-1.9-2.1-2.2-2.8c-0.6-1.2-0.5-2.5,0.3-3.7
				c0.8-1.4,2-2.2,3.5-2.4c1.5-0.3,3.1,0.1,4.8,1.2c1.6,1,2.7,2.2,3.4,3.7c0.6,1.5,0.4,3-0.6,4.7l-2-1.2c0.4-0.9,0.6-1.6,0.5-2.3
				c-0.1-1.2-0.9-2.2-2.4-3.1c-1.2-0.7-2.2-1-3.1-0.8c-0.8,0.2-1.5,0.6-1.9,1.3c-0.5,0.7-0.5,1.5-0.1,2.2c0.3,0.5,1,1.3,2.2,2.5
				l1.8,1.8c0.9,0.9,1.5,1.7,1.8,2.4c0.5,1.3,0.4,2.6-0.5,4c-1,1.7-2.4,2.5-4.1,2.4c-1.7,0-3.3-0.6-5-1.6c-1.9-1.2-3.1-2.6-3.6-4.2
				c-0.5-1.6-0.2-3.2,0.8-4.8L248.5,58.1z"/>
		</g>
		<g>
			<path class="st7" d="M269.6,57.3l6.4,5.2c1.3,1,2,2.2,2.2,3.5c0.2,1.3-0.2,2.6-1.2,3.9c-0.9,1.1-2,1.7-3.3,2
				c-1.3,0.2-2.7-0.2-4.2-1.4l-4.5-3.6l-4.7,5.8l-1.9-1.6L269.6,57.3z M275.6,65.3c-0.3-0.5-0.8-1.1-1.5-1.7l-3.8-3.1l-3.9,4.8
				l3.8,3.1c0.9,0.7,1.7,1.1,2.5,1.2c0.8,0.1,1.6-0.3,2.3-1.2C275.9,67.3,276.1,66.3,275.6,65.3z"/>
		</g>
		<g>
			<path class="st7" d="M292.4,82.5c-0.3,2-1.4,3.8-3.1,5.5c-1.9,1.8-4,2.8-6.3,3c-2.6,0.2-5-0.8-7-3c-1.9-2.1-2.8-4.3-2.6-6.7
				c0.3-2.2,1.4-4.3,3.3-6.1c1.8-1.6,3.7-2.6,5.8-2.8c2.7-0.3,5.1,0.6,7.2,2.9C291.9,77.5,292.8,80,292.4,82.5z M282.6,88.6
				c1.8-0.3,3.4-1.2,4.8-2.5c1.5-1.4,2.4-3,2.5-4.7c0.2-1.7-0.4-3.3-1.8-4.7c-1.3-1.4-2.8-2.1-4.6-2.1c-1.7,0-3.5,0.8-5.3,2.5
				c-1.4,1.3-2.3,2.9-2.6,4.5c-0.3,1.7,0.4,3.4,2,5.1C279.2,88.3,280.9,88.9,282.6,88.6z"/>
		</g>
		<g>
			<path class="st7" d="M298.9,86.3l4.8,6.9c0.8,1.1,1.3,2.2,1.5,3.1c0.4,1.8-0.3,3.3-2,4.5c-0.9,0.6-1.7,0.9-2.5,0.9
				c-0.8,0-1.6-0.2-2.4-0.6c0.2,0.8,0.2,1.4,0,2c-0.2,0.6-0.7,1.2-1.5,1.8l-1.9,1.4c-0.5,0.4-0.9,0.7-1.1,1
				c-0.4,0.4-0.5,0.9-0.4,1.3l-0.3,0.2l-1.8-2.5c0.1-0.2,0.2-0.3,0.4-0.5c0.2-0.2,0.5-0.5,1.1-0.9l2.3-1.8c0.9-0.7,1.3-1.5,1.2-2.4
				c-0.1-0.5-0.4-1.2-1-2l-3.2-4.5l-6.2,4.3l-1.4-2L298.9,86.3z M296.8,97.6c0.7,0.9,1.4,1.5,2.1,1.8c0.7,0.3,1.6,0.1,2.6-0.6
				c1-0.7,1.5-1.6,1.3-2.6c-0.1-0.5-0.4-1.2-0.8-1.8l-3.4-4.9l-5,3.5L296.8,97.6z"/>
		</g>
		<g>
			<path class="st7" d="M316,114.4l-1.9,1l-2.9-5.5l-13.8,7.3l-1.2-2.2l13.8-7.3l-2.9-5.5l1.9-1L316,114.4z"/>
		</g>
		<g>
			<path class="st7" d="M318.7,121.4l1,2.6l-14.1,12.7l-1-2.5l4.2-3.7l-2.6-6.7l-5.7,0.1l-0.9-2.4L318.7,121.4z M310.5,129.1
				l6.3-5.5l-8.4,0.1L310.5,129.1z"/>
		</g>
		<g>
			<path class="st7" d="M326.2,145.1l-2,0.6l-1.6-6l-15.1,4.1l-0.7-2.4l15.1-4.1l-1.6-6l2-0.5L326.2,145.1z"/>
		</g>
		<g>
			<path class="st7" d="M326.8,149.4l0.4,2.5l-17.5,3.1l-0.4-2.5L326.8,149.4z"/>
		</g>
		<g>
			<path class="st7" d="M327,172.6c-1.5,1.3-3.4,2.1-5.9,2.3c-2.6,0.2-4.9-0.3-6.7-1.6c-2.2-1.5-3.4-3.7-3.6-6.8
				c-0.2-2.8,0.5-5.1,2.2-6.9c1.6-1.6,3.8-2.5,6.4-2.7c2.4-0.2,4.5,0.3,6.3,1.4c2.3,1.4,3.6,3.7,3.8,6.8
				C329.7,168.4,328.9,170.9,327,172.6z M315.6,171.2c1.6,0.9,3.4,1.2,5.3,1.1c2.1-0.2,3.7-0.8,4.9-2.1c1.2-1.2,1.7-2.8,1.6-4.8
				c-0.1-1.9-0.9-3.4-2.2-4.5c-1.3-1.1-3.2-1.6-5.7-1.4c-2,0.1-3.6,0.8-4.8,1.9c-1.3,1.1-1.8,2.9-1.6,5.2
				C313.1,168.8,314,170.3,315.6,171.2z"/>
		</g>
		<g>
			<path class="st7" d="M329.7,179.4l-0.2,2.9l-14.9,8.2l14.3,1l-0.2,2.4l-17.7-1.2l0.2-2.8l14.9-8.3l-14.3-1l0.2-2.4L329.7,179.4z"
				/>
		</g>
	</g>
	<path class="st4" d="M181,5.5"/>
	<path class="st4" d="M12.5,178"/>
	<path class="st4" d="M178.5,346"/>
	<path class="st4" d="M351,158.5"/>
</g>
<g id="_x32_86_1_">
	<g class="st1">
		<g class="st2">
			<path class="st0" d="M50.5,208.1l-10.6,2.8c-1.2,0.3-2.2,0.9-2.9,1.6c-1,1.1-1.3,2.5-0.9,4.3c0.6,2.1,1.6,3.4,3.2,3.8
				c0.8,0.2,1.9,0.2,3.1-0.2l10.6-2.8l0.7,2.5l-9.6,2.6c-2.1,0.6-3.8,0.7-5.1,0.4c-2.4-0.6-4-2.4-4.8-5.5c-0.8-3.1-0.4-5.5,1.4-7.1
				c1-0.9,2.5-1.6,4.6-2.2l9.6-2.6L50.5,208.1z"/>
		</g>
		<g class="st2">
			<path class="st0" d="M54.8,222.9l1.2,2.8L46.6,240l13.1-5.7l1,2.2l-16.3,7.1l-1.1-2.6l9.3-14.5l-13.1,5.7l-1-2.2L54.8,222.9z"/>
		</g>
		<g class="st2">
			<path class="st0" d="M63,240.5l1.3,2.3l-15.5,8.7l-1.3-2.3L63,240.5z"/>
		</g>
		<g class="st2">
			<path class="st0" d="M74,257.3l-1.7,1.2l-3.6-5.3l-12.9,8.9l-1.5-2.1l12.9-8.9l-3.6-5.3l1.7-1.2L74,257.3z"/>
		</g>
		<g class="st2">
			<path class="st0" d="M75.2,258.9l9.2,10.2l-1.6,1.4l-7.5-8.4l-4,3.6l6.9,7.7l-1.5,1.4l-6.9-7.7l-4.5,4l7.6,8.5l-1.6,1.4L62,270.7
				L75.2,258.9z"/>
		</g>
		<g class="st2">
			<path class="st0" d="M86.5,271.3l5.8,4.9c2,1.7,2.9,3.6,2.9,5.9c0,2-0.9,3.9-2.4,5.8c-1.2,1.4-2.6,2.5-4.2,3.2
				c-2.7,1.2-5.3,0.8-7.8-1.3l-5.7-4.9L86.5,271.3z M81.7,287.8c0.6,0.6,1.2,0.9,1.8,1.2c0.9,0.4,1.9,0.4,3,0.2
				c0.8-0.2,1.7-0.7,2.6-1.4c0.5-0.4,1-0.9,1.3-1.3c1.4-1.7,2.2-3.3,2.3-4.8c0.1-1.5-0.6-2.9-2.2-4.2l-3.4-2.9l-8.8,10.4L81.7,287.8
				z"/>
		</g>
		<g class="st2">
			<path class="st0" d="M102.4,298.4c-0.4,0.9-0.6,1.7-0.6,2.5c0.1,1.4,1.1,2.6,2.9,3.7c0.8,0.5,1.6,0.8,2.4,0.9
				c1.5,0.3,2.6-0.1,3.2-1.2c0.5-0.8,0.5-1.6,0.2-2.3c-0.4-0.7-1-1.5-2.1-2.4l-1.9-1.7c-1.2-1.1-2-2-2.4-2.7
				c-0.6-1.2-0.6-2.5,0.1-3.7c0.8-1.4,1.9-2.2,3.4-2.6c1.5-0.3,3.2,0,5,1.1c1.7,1,2.9,2.2,3.6,3.6c0.7,1.4,0.6,3-0.4,4.7l-2.1-1.2
				c0.4-0.9,0.5-1.6,0.4-2.3c-0.2-1.2-1.1-2.2-2.6-3.1c-1.3-0.7-2.3-1-3.2-0.8c-0.8,0.2-1.5,0.7-1.9,1.3c-0.4,0.8-0.4,1.5,0,2.2
				c0.3,0.5,1.1,1.3,2.4,2.5l2,1.8c0.9,0.9,1.6,1.7,1.9,2.4c0.6,1.3,0.5,2.6-0.3,4c-1,1.7-2.3,2.6-4,2.6c-1.7,0-3.4-0.5-5.1-1.5
				c-2-1.1-3.3-2.5-3.9-4.1c-0.6-1.6-0.4-3.2,0.6-4.9L102.4,298.4z"/>
		</g>
		<g class="st2">
			<path class="st0" d="M134.6,300.8l-0.8,1.9l-5.9-2.5l-6,14.4l-2.4-1l6-14.4l-5.9-2.5l0.8-1.9L134.6,300.8z"/>
		</g>
		<g class="st2">
			<path class="st0" d="M140,302.1l2.8,0.8l1.6,18.9l-2.7-0.8l-0.4-5.7l-7.1-2.1l-3.5,4.5l-2.5-0.7L140,302.1z M141.1,313.3
				l-0.6-8.3l-5.1,6.7L141.1,313.3z"/>
		</g>
		<g class="st2">
			<path class="st0" d="M162.8,307.3l-0.4,2.1l-6.3-1.1l-2.8,15.4l-2.5-0.5l2.8-15.4l-6.3-1.1l0.4-2.1L162.8,307.3z"/>
		</g>
		<g class="st2">
			<path class="st0" d="M164.9,307.4l13.7,0.8l-0.1,2.2l-11.2-0.7l-0.3,5.4l10.4,0.6l-0.1,2l-10.4-0.6l-0.4,6l11.4,0.7l-0.1,2.1
				l-13.9-0.8L164.9,307.4z"/>
		</g>
		<g class="st2">
			<path class="st0" d="M184.1,320.3c0.1,1,0.4,1.8,0.9,2.4c0.9,1.1,2.4,1.6,4.4,1.5c0.9-0.1,1.8-0.2,2.5-0.5c1.4-0.6,2.1-1.5,2-2.8
				c-0.1-1-0.4-1.6-1.1-2c-0.7-0.4-1.7-0.6-3-0.9l-2.5-0.4c-1.6-0.3-2.8-0.6-3.5-1c-1.2-0.7-1.9-1.7-2-3.2c-0.1-1.6,0.4-2.9,1.5-4
				c1.1-1.1,2.7-1.7,4.8-1.8c1.9-0.1,3.6,0.2,5,1c1.4,0.8,2.2,2.2,2.3,4.2l-2.4,0.2c-0.2-0.9-0.5-1.6-0.9-2.1
				c-0.8-0.9-2.1-1.3-3.9-1.1c-1.4,0.1-2.5,0.5-3.1,1.1c-0.6,0.6-0.9,1.3-0.8,2.1c0.1,0.9,0.5,1.5,1.2,1.8c0.5,0.2,1.6,0.5,3.4,0.8
				l2.6,0.4c1.3,0.2,2.2,0.5,2.9,0.9c1.2,0.8,1.9,1.9,2,3.5c0.1,2-0.5,3.4-2,4.3c-1.4,0.9-3.1,1.5-5.1,1.6c-2.3,0.1-4.1-0.3-5.5-1.4
				c-1.4-1-2.1-2.5-2.2-4.4L184.1,320.3z"/>
		</g>
		<g class="st2">
			<path class="st0" d="M221.6,304.5c1.6,1.2,2.7,3,3.3,5.4c0.7,2.6,0.5,4.9-0.4,6.9c-1.1,2.4-3.2,4-6.2,4.8
				c-2.8,0.7-5.3,0.4-7.3-0.9c-1.9-1.3-3.1-3.3-3.8-5.8c-0.6-2.3-0.5-4.5,0.3-6.4c1-2.5,3.1-4.2,6.2-5
				C216.9,302.5,219.5,302.9,221.6,304.5z M222.2,316c0.6-1.7,0.7-3.5,0.2-5.4c-0.5-2-1.5-3.5-2.9-4.4c-1.4-0.9-3.1-1.2-5.1-0.7
				c-1.9,0.5-3.3,1.5-4.2,3c-0.9,1.5-1,3.5-0.4,5.9c0.5,1.9,1.4,3.4,2.8,4.4c1.4,1,3.2,1.3,5.5,0.7
				C220.2,318.8,221.6,317.7,222.2,316z"/>
		</g>
		<g class="st2">
			<path class="st0" d="M225.3,300.4l12.2-4.9l0.8,2l-9.8,3.9l2,5l8.6-3.5l0.8,2l-8.6,3.5l3,7.5l-2.4,1L225.3,300.4z"/>
		</g>
		<g class="st2">
			<path class="st0" d="M249.4,288.9l2.5-1.5l15.1,11.5l-2.4,1.5l-4.5-3.5l-6.3,3.9l1,5.6l-2.2,1.4L249.4,288.9z M258.5,295.6
				l-6.6-5.2l1.5,8.3L258.5,295.6z"/>
		</g>
		<g class="st2">
			<path class="st0" d="M259.2,283l2.8-2.3l13.8,8.1l-5.4-15l2.8-2.3l11.3,13.6l-1.9,1.6l-6.7-8c-0.2-0.3-0.6-0.7-1.1-1.4
				c-0.5-0.7-1.1-1.4-1.7-2.1l5.4,15l-2,1.6l-13.8-8l0.3,0.4c0.3,0.3,0.7,0.8,1.3,1.5c0.6,0.7,1,1.2,1.3,1.5l6.7,8.1l-1.9,1.6
				L259.2,283z"/>
		</g>
		<g class="st2">
			<path class="st0" d="M275.5,268.9l9.2-10.2l1.6,1.5l-7.5,8.4l4,3.6l6.9-7.7l1.5,1.4l-6.9,7.7l4.5,4l7.6-8.5l1.6,1.4l-9.3,10.4
				L275.5,268.9z"/>
		</g>
		<g class="st2">
			<path class="st0" d="M286.6,256.2l4.8-7.1c0.8-1.2,1.6-2,2.5-2.6c1.6-1,3.2-1,4.9,0.2c0.9,0.6,1.5,1.3,1.8,2
				c0.3,0.8,0.4,1.6,0.2,2.5c0.6-0.5,1.3-0.7,1.9-0.8c0.6-0.1,1.3,0.2,2.2,0.7l2,1.3c0.6,0.4,1,0.6,1.4,0.7c0.6,0.2,1,0.2,1.4-0.1
				l0.3,0.2l-1.8,2.6c-0.2,0-0.4-0.1-0.6-0.2c-0.2-0.1-0.6-0.3-1.2-0.7l-2.5-1.5c-1-0.6-1.9-0.7-2.7-0.2c-0.4,0.3-1,0.8-1.5,1.7
				l-3.2,4.7l6.3,4.3l-1.4,2.1L286.6,256.2z M298,253.8c0.7-1,1-1.9,1-2.7c0-0.8-0.5-1.6-1.4-2.2c-1-0.7-2-0.8-2.9-0.3
				c-0.5,0.3-1,0.8-1.4,1.5l-3.4,5l5,3.4L298,253.8z"/>
		</g>
		<g class="st2">
			<path class="st0" d="M296.8,240l1.2-2.3l15.6,8.4l-1.2,2.3L296.8,240z"/>
		</g>
		<g class="st2">
			<path class="st0" d="M306.2,222.6c1.6-0.8,3.1-0.9,4.6-0.5l-0.9,2.3c-1.2-0.2-2.2,0-3.1,0.5c-0.9,0.5-1.7,1.5-2.3,2.9
				c-0.7,1.7-0.7,3.3,0,4.8c0.7,1.5,2.2,2.7,4.6,3.7c1.9,0.8,3.7,1,5.3,0.5c1.6-0.4,2.8-1.6,3.5-3.5c0.7-1.7,0.6-3.3-0.3-4.7
				c-0.5-0.7-1.2-1.5-2.2-2.1l0.9-2.3c1.6,0.9,2.8,2.2,3.5,3.8c0.8,2,0.8,4.1-0.2,6.4c-0.8,2-2.1,3.5-3.8,4.4
				c-2.3,1.2-5,1.1-8.2-0.2c-2.4-1-4.1-2.5-5.1-4.5c-1.1-2.2-1.1-4.5,0-7.1C303.4,224.8,304.7,223.4,306.2,222.6z"/>
		</g>
		<g class="st2">
			<path class="st0" d="M308,212.2l0.7-2.8l18.9-2.4l-0.7,2.7l-5.6,0.6l-1.8,7.2l4.7,3.3l-0.6,2.5L308,212.2z M319.1,210.6l-8.3,0.9
				l6.9,4.8L319.1,210.6z"/>
		</g>
		<g class="st2">
			<path class="st0" d="M29.7,190.3l-0.3-7.4c-0.1-2.5,0.7-4.5,2.3-5.9c1.5-1.3,3.5-2,5.9-2.1c1.9-0.1,3.6,0.2,5.1,0.9
				c2.7,1.2,4.2,3.3,4.3,6.4l0.3,7.3L29.7,190.3z M45,182.8c0-0.8-0.2-1.5-0.3-2c-0.4-0.9-1-1.7-1.9-2.2c-0.7-0.5-1.7-0.8-2.8-0.9
				c-0.7-0.1-1.3-0.1-1.9-0.1c-2.2,0.1-3.9,0.6-5.1,1.6c-1.2,0.9-1.7,2.4-1.6,4.4l0.2,4.3l13.6-0.6L45,182.8z"/>
		</g>
		<g class="st2">
			<path class="st0" d="M29.2,169.7l1.2-13.3l2.2,0.2l-1,10.9l5.4,0.5l0.9-10.1l2,0.2L39,168.1l6,0.5l1-11.1l2.1,0.2l-1.2,13.5
				L29.2,169.7z"/>
		</g>
		<g class="st2">
			<path class="st0" d="M31.2,150.9l1.8-8.1c0.4-1.6,1.1-2.8,2.2-3.6c1.1-0.8,2.4-1,4-0.7c1.4,0.3,2.4,1,3.2,2.1
				c0.8,1.1,1,2.5,0.6,4.3l-1.2,5.6l7.3,1.6l-0.5,2.4L31.2,150.9z M35.7,142c-0.4,0.5-0.6,1.2-0.9,2.1l-1.1,4.8l6,1.3l1.1-4.8
				c0.2-1.1,0.2-2-0.1-2.8c-0.3-0.8-1-1.3-2.1-1.5C37.4,140.8,36.4,141.1,35.7,142z"/>
		</g>
		<g class="st2">
			<path class="st0" d="M36.9,129.5l0.9-2.7l18.9-0.5l-0.9,2.6l-5.6,0.1l-2.4,6.8l4.4,3.6l-0.8,2.4L36.9,129.5z M48.1,129l-8.3,0.1
				l6.4,5.4L48.1,129z"/>
		</g>
		<g class="st2">
			<path class="st0" d="M41.8,116.1l3.8-7.5c0.6-1.2,1.3-2.2,2.1-2.8c1.4-1.2,3.1-1.3,4.9-0.4c0.9,0.5,1.6,1.1,2,1.8
				c0.4,0.7,0.6,1.5,0.6,2.4c0.6-0.5,1.1-0.8,1.7-0.9c0.6-0.1,1.3,0,2.3,0.5l2.2,1c0.6,0.3,1.1,0.5,1.4,0.5c0.6,0.1,1,0,1.3-0.2
				l0.4,0.2l-1.4,2.7c-0.2,0-0.4,0-0.6-0.1c-0.2-0.1-0.7-0.2-1.3-0.5l-2.7-1.2c-1.1-0.5-1.9-0.4-2.7,0.1c-0.4,0.3-0.8,0.9-1.3,1.8
				l-2.5,4.9l6.8,3.4l-1.1,2.2L41.8,116.1z M52.7,112.5c0.5-1,0.7-1.9,0.6-2.7c-0.1-0.8-0.7-1.5-1.7-2c-1.1-0.6-2.1-0.5-2.9,0.1
				c-0.4,0.3-0.8,0.9-1.2,1.6l-2.7,5.3l5.4,2.7L52.7,112.5z"/>
		</g>
		<g class="st2">
			<path class="st0" d="M58.4,87.8l1.8,1.2l-3.5,5.2l13,8.7l-1.4,2.1l-13-8.7l-3.5,5.2l-1.7-1.2L58.4,87.8z"/>
		</g>
		<g class="st2">
			<path class="st0" d="M61.1,84.4l2.4-2.7l14.7,6.1l-7.6-13.9l2.4-2.6L86.1,83l-1.6,1.8l-7.8-7c-0.3-0.2-0.7-0.6-1.3-1.2
				c-0.6-0.6-1.3-1.2-2-1.8L81,88.7l-1.7,1.8l-14.7-6l0.4,0.4c0.3,0.3,0.8,0.7,1.5,1.3s1.2,1,1.5,1.3l7.8,7l-1.6,1.8L61.1,84.4z"/>
		</g>
		<g class="st2">
			<path class="st0" d="M77.4,67l10.3-8.6l1.4,1.7l-8.4,7l3.5,4.1l7.7-6.5l1.3,1.6l-7.7,6.5l3.9,4.6l8.5-7.2l1.4,1.6l-10.4,8.7
				L77.4,67z"/>
		</g>
		<g class="st2">
			<path class="st0" d="M92,55.3l2.5-1.6l15.4,7.1l-7.7-12.1l2-1.3l9.5,15l-2.4,1.5l-15.6-7.1l7.7,12.1l-2,1.3L92,55.3z"/>
		</g>
		<g class="st2">
			<path class="st0" d="M121.7,38.8l0.9,1.9l-5.6,2.6l6.7,14.1l-2.3,1.1l-6.7-14.1l-5.6,2.6l-0.9-1.9L121.7,38.8z"/>
		</g>
		<g class="st2">
			<path class="st0" d="M147.9,33.4c1.6,1.2,2.7,3,3.3,5.4c0.7,2.6,0.6,4.9-0.3,6.9c-1.1,2.4-3.1,4-6,4.8c-2.7,0.7-5.1,0.4-7.2-0.9
				c-1.8-1.3-3.1-3.2-3.8-5.8c-0.6-2.3-0.5-4.5,0.2-6.4c1-2.5,3-4.2,6-5C143.3,31.5,145.9,31.9,147.9,33.4z M148.7,44.9
				c0.6-1.7,0.6-3.5,0.1-5.4c-0.5-2-1.5-3.5-2.9-4.4c-1.4-0.9-3.1-1.2-5-0.7c-1.8,0.5-3.2,1.5-4,3c-0.8,1.5-1,3.5-0.3,5.9
				c0.5,1.9,1.4,3.4,2.8,4.4c1.3,1,3.1,1.3,5.4,0.7C146.7,47.8,148.1,46.6,148.7,44.9z"/>
		</g>
		<g class="st2">
			<path class="st0" d="M154.2,29.6l12.7-1.6l0.3,2.2l-10.2,1.3l0.7,5.3l9-1.1l0.3,2.1l-9,1.1l1,8l-2.5,0.3L154.2,29.6z"/>
		</g>
		<g class="st2">
			<path class="st0" d="M192.2,28.1l-0.1,2.1L186,30l-0.6,15.6l-2.5-0.1l0.6-15.6l-6.2-0.2l0.1-2.1L192.2,28.1z"/>
		</g>
		<g class="st2">
			<path class="st0" d="M196.7,28.6l8.3,1.3c1.4,0.2,2.5,0.6,3.3,1.1c1.6,1,2.2,2.5,1.8,4.5c-0.2,1-0.5,1.9-1.1,2.5
				c-0.6,0.6-1.3,1-2.2,1.3c0.7,0.4,1.1,0.8,1.4,1.4c0.3,0.5,0.4,1.3,0.2,2.3l-0.3,2.4c-0.1,0.7-0.1,1.2-0.1,1.5
				c0.1,0.6,0.3,1,0.6,1.2l-0.1,0.4l-3-0.5c-0.1-0.2-0.1-0.4-0.1-0.6c0-0.2,0-0.7,0.1-1.4L206,43c0.1-1.2-0.2-2-0.9-2.5
				c-0.4-0.3-1.1-0.5-2.1-0.7l-5.5-0.9l-1.2,7.5l-2.5-0.4L196.7,28.6z M203.4,37.9c1.1,0.2,2,0.1,2.8-0.2c0.7-0.3,1.2-1.1,1.4-2.2
				c0.2-1.2-0.1-2.2-1-2.8c-0.5-0.3-1.1-0.5-1.9-0.7l-5.9-1l-1,6L203.4,37.9z"/>
		</g>
		<g class="st2">
			<path class="st0" d="M221.8,33.8l2.7,0.8l1.3,18.9l-2.6-0.8l-0.3-5.6L216,45l-3.4,4.5l-2.5-0.7L221.8,33.8z M222.8,45l-0.5-8.3
				l-5.1,6.6L222.8,45z"/>
		</g>
		<g class="st2">
			<path class="st0" d="M234.7,38.1l2.7,1.2l2.5,16.8l5.9-13.1l2.2,1l-7.3,16.2l-2.6-1.2l-2.6-16.9l-5.9,13l-2.2-1L234.7,38.1z"/>
		</g>
		<g class="st2">
			<path class="st0" d="M248.5,58.1c-0.5,0.9-0.7,1.7-0.7,2.5c0.1,1.4,0.9,2.7,2.7,3.7c0.8,0.5,1.5,0.8,2.3,1c1.5,0.3,2.6,0,3.2-1.1
				c0.5-0.8,0.6-1.6,0.3-2.2c-0.3-0.7-0.9-1.5-1.9-2.4l-1.8-1.7c-1.2-1.1-1.9-2.1-2.2-2.8c-0.6-1.2-0.5-2.5,0.3-3.7
				c0.8-1.4,2-2.2,3.5-2.4c1.5-0.3,3.1,0.1,4.8,1.2c1.6,1,2.7,2.2,3.4,3.7c0.6,1.5,0.4,3-0.6,4.7l-2-1.2c0.4-0.9,0.6-1.6,0.5-2.3
				c-0.1-1.2-0.9-2.2-2.4-3.1c-1.2-0.7-2.2-1-3.1-0.8c-0.8,0.2-1.5,0.6-1.9,1.3c-0.5,0.7-0.5,1.5-0.1,2.2c0.3,0.5,1,1.3,2.2,2.5
				l1.8,1.8c0.9,0.9,1.5,1.7,1.8,2.4c0.5,1.3,0.4,2.6-0.5,4c-1,1.7-2.4,2.5-4.1,2.4c-1.7,0-3.3-0.6-5-1.6c-1.9-1.2-3.1-2.6-3.6-4.2
				c-0.5-1.6-0.2-3.2,0.8-4.8L248.5,58.1z"/>
		</g>
		<g class="st2">
			<path class="st0" d="M269.6,57.3l6.4,5.2c1.3,1,2,2.2,2.2,3.5c0.2,1.3-0.2,2.6-1.2,3.9c-0.9,1.1-2,1.7-3.3,2
				c-1.3,0.2-2.7-0.2-4.2-1.4l-4.5-3.6l-4.7,5.8l-1.9-1.6L269.6,57.3z M275.6,65.3c-0.3-0.5-0.8-1.1-1.5-1.7l-3.8-3.1l-3.9,4.8
				l3.8,3.1c0.9,0.7,1.7,1.1,2.5,1.2c0.8,0.1,1.6-0.3,2.3-1.2C275.9,67.3,276.1,66.3,275.6,65.3z"/>
		</g>
		<g class="st2">
			<path class="st0" d="M292.4,82.5c-0.3,2-1.4,3.8-3.1,5.5c-1.9,1.8-4,2.8-6.3,3c-2.6,0.2-5-0.8-7-3c-1.9-2.1-2.8-4.3-2.6-6.7
				c0.3-2.2,1.4-4.3,3.3-6.1c1.8-1.6,3.7-2.6,5.8-2.8c2.7-0.3,5.1,0.6,7.2,2.9C291.9,77.5,292.8,80,292.4,82.5z M282.6,88.6
				c1.8-0.3,3.4-1.2,4.8-2.5c1.5-1.4,2.4-3,2.5-4.7c0.2-1.7-0.4-3.3-1.8-4.7c-1.3-1.4-2.8-2.1-4.6-2.1c-1.7,0-3.5,0.8-5.3,2.5
				c-1.4,1.3-2.3,2.9-2.6,4.5c-0.3,1.7,0.4,3.4,2,5.1C279.2,88.3,280.9,88.9,282.6,88.6z"/>
		</g>
		<g class="st2">
			<path class="st0" d="M298.9,86.3l4.8,6.9c0.8,1.1,1.3,2.2,1.5,3.1c0.4,1.8-0.3,3.3-2,4.5c-0.9,0.6-1.7,0.9-2.5,0.9
				c-0.8,0-1.6-0.2-2.4-0.6c0.2,0.8,0.2,1.4,0,2c-0.2,0.6-0.7,1.2-1.5,1.8l-1.9,1.4c-0.5,0.4-0.9,0.7-1.1,1
				c-0.4,0.4-0.5,0.9-0.4,1.3l-0.3,0.2l-1.8-2.5c0.1-0.2,0.2-0.3,0.4-0.5c0.2-0.2,0.5-0.5,1.1-0.9l2.3-1.8c0.9-0.7,1.3-1.5,1.2-2.4
				c-0.1-0.5-0.4-1.2-1-2l-3.2-4.5l-6.2,4.3l-1.4-2L298.9,86.3z M296.8,97.6c0.7,0.9,1.4,1.5,2.1,1.8c0.7,0.3,1.6,0.1,2.6-0.6
				c1-0.7,1.5-1.6,1.3-2.6c-0.1-0.5-0.4-1.2-0.8-1.8l-3.4-4.9l-5,3.5L296.8,97.6z"/>
		</g>
		<g class="st2">
			<path class="st0" d="M316,114.4l-1.9,1l-2.9-5.5l-13.8,7.3l-1.2-2.2l13.8-7.3l-2.9-5.5l1.9-1L316,114.4z"/>
		</g>
		<g class="st2">
			<path class="st0" d="M318.7,121.4l1,2.6l-14.1,12.7l-1-2.5l4.2-3.7l-2.6-6.7l-5.7,0.1l-0.9-2.4L318.7,121.4z M310.5,129.1
				l6.3-5.5l-8.4,0.1L310.5,129.1z"/>
		</g>
		<g class="st2">
			<path class="st0" d="M326.2,145.1l-2,0.6l-1.6-6l-15.1,4.1l-0.7-2.4l15.1-4.1l-1.6-6l2-0.5L326.2,145.1z"/>
		</g>
		<g class="st2">
			<path class="st0" d="M326.8,149.4l0.4,2.5l-17.5,3.1l-0.4-2.5L326.8,149.4z"/>
		</g>
		<g class="st2">
			<path class="st0" d="M327,172.6c-1.5,1.3-3.4,2.1-5.9,2.3c-2.6,0.2-4.9-0.3-6.7-1.6c-2.2-1.5-3.4-3.7-3.6-6.8
				c-0.2-2.8,0.5-5.1,2.2-6.9c1.6-1.6,3.8-2.5,6.4-2.7c2.4-0.2,4.5,0.3,6.3,1.4c2.3,1.4,3.6,3.7,3.8,6.8
				C329.7,168.4,328.9,170.9,327,172.6z M315.6,171.2c1.6,0.9,3.4,1.2,5.3,1.1c2.1-0.2,3.7-0.8,4.9-2.1c1.2-1.2,1.7-2.8,1.6-4.8
				c-0.1-1.9-0.9-3.4-2.2-4.5c-1.3-1.1-3.2-1.6-5.7-1.4c-2,0.1-3.6,0.8-4.8,1.9c-1.3,1.1-1.8,2.9-1.6,5.2
				C313.1,168.8,314,170.3,315.6,171.2z"/>
		</g>
		<g class="st2">
			<path class="st0" d="M329.7,179.4l-0.2,2.9l-14.9,8.2l14.3,1l-0.2,2.4l-17.7-1.2l0.2-2.8l14.9-8.3l-14.3-1l0.2-2.4L329.7,179.4z"
				/>
		</g>
	</g>
	<path class="st7" d="M181,5.5"/>
	<path class="st7" d="M12.5,178"/>
	<path class="st7" d="M178.5,346"/>
	<path class="st7" d="M351,158.5"/>
</g>
<g id="KO_copy" class="st1">
	<g class="st2">
		<g>
			<path class="st8" d="M50.5,208.1l-10.6,2.8c-1.2,0.3-2.2,0.9-2.9,1.6c-1,1.1-1.3,2.5-0.9,4.3c0.6,2.1,1.6,3.4,3.2,3.8
				c0.8,0.2,1.9,0.2,3.1-0.2l10.6-2.8l0.7,2.5l-9.6,2.6c-2.1,0.6-3.8,0.7-5.1,0.4c-2.4-0.6-4-2.4-4.8-5.5c-0.8-3.1-0.4-5.5,1.4-7.1
				c1-0.9,2.5-1.6,4.6-2.2l9.6-2.6L50.5,208.1z"/>
		</g>
		<g>
			<path class="st8" d="M54.8,222.9l1.2,2.8L46.6,240l13.1-5.7l1,2.2l-16.3,7.1l-1.1-2.6l9.3-14.5l-13.1,5.7l-1-2.2L54.8,222.9z"/>
		</g>
		<g>
			<path class="st8" d="M63,240.5l1.3,2.3l-15.5,8.7l-1.3-2.3L63,240.5z"/>
		</g>
		<g>
			<path class="st8" d="M74,257.3l-1.7,1.2l-3.6-5.3l-12.9,8.9l-1.5-2.1l12.9-8.9l-3.6-5.3l1.7-1.2L74,257.3z"/>
		</g>
		<g>
			<path class="st8" d="M75.2,258.9l9.2,10.2l-1.6,1.4l-7.5-8.4l-4,3.6l6.9,7.7l-1.5,1.4l-6.9-7.7l-4.5,4l7.6,8.5l-1.6,1.4L62,270.7
				L75.2,258.9z"/>
		</g>
		<g>
			<path class="st8" d="M86.5,271.3l5.8,4.9c2,1.7,2.9,3.6,2.9,5.9c0,2-0.9,3.9-2.4,5.8c-1.2,1.4-2.6,2.5-4.2,3.2
				c-2.7,1.2-5.3,0.8-7.8-1.3l-5.7-4.9L86.5,271.3z M81.7,287.8c0.6,0.6,1.2,0.9,1.8,1.2c0.9,0.4,1.9,0.4,3,0.2
				c0.8-0.2,1.7-0.7,2.6-1.4c0.5-0.4,1-0.9,1.3-1.3c1.4-1.7,2.2-3.3,2.3-4.8c0.1-1.5-0.6-2.9-2.2-4.2l-3.4-2.9l-8.8,10.4L81.7,287.8
				z"/>
		</g>
		<g>
			<path class="st8" d="M102.4,298.4c-0.4,0.9-0.6,1.7-0.6,2.5c0.1,1.4,1.1,2.6,2.9,3.7c0.8,0.5,1.6,0.8,2.4,0.9
				c1.5,0.3,2.6-0.1,3.2-1.2c0.5-0.8,0.5-1.6,0.2-2.3c-0.4-0.7-1-1.5-2.1-2.4l-1.9-1.7c-1.2-1.1-2-2-2.4-2.7
				c-0.6-1.2-0.6-2.5,0.1-3.7c0.8-1.4,1.9-2.2,3.4-2.6c1.5-0.3,3.2,0,5,1.1c1.7,1,2.9,2.2,3.6,3.6c0.7,1.4,0.6,3-0.4,4.7l-2.1-1.2
				c0.4-0.9,0.5-1.6,0.4-2.3c-0.2-1.2-1.1-2.2-2.6-3.1c-1.3-0.7-2.3-1-3.2-0.8c-0.8,0.2-1.5,0.7-1.9,1.3c-0.4,0.8-0.4,1.5,0,2.2
				c0.3,0.5,1.1,1.3,2.4,2.5l2,1.8c0.9,0.9,1.6,1.7,1.9,2.4c0.6,1.3,0.5,2.6-0.3,4c-1,1.7-2.3,2.6-4,2.6c-1.7,0-3.4-0.5-5.1-1.5
				c-2-1.1-3.3-2.5-3.9-4.1c-0.6-1.6-0.4-3.2,0.6-4.9L102.4,298.4z"/>
		</g>
		<g>
			<path class="st8" d="M134.6,300.8l-0.8,1.9l-5.9-2.5l-6,14.4l-2.4-1l6-14.4l-5.9-2.5l0.8-1.9L134.6,300.8z"/>
		</g>
		<g>
			<path class="st8" d="M140,302.1l2.8,0.8l1.6,18.9l-2.7-0.8l-0.4-5.7l-7.1-2.1l-3.5,4.5l-2.5-0.7L140,302.1z M141.1,313.3
				l-0.6-8.3l-5.1,6.7L141.1,313.3z"/>
		</g>
		<g>
			<path class="st8" d="M162.8,307.3l-0.4,2.1l-6.3-1.1l-2.8,15.4l-2.5-0.5l2.8-15.4l-6.3-1.1l0.4-2.1L162.8,307.3z"/>
		</g>
		<g>
			<path class="st8" d="M164.9,307.4l13.7,0.8l-0.1,2.2l-11.2-0.7l-0.3,5.4l10.4,0.6l-0.1,2l-10.4-0.6l-0.4,6l11.4,0.7l-0.1,2.1
				l-13.9-0.8L164.9,307.4z"/>
		</g>
		<g>
			<path class="st8" d="M184.1,320.3c0.1,1,0.4,1.8,0.9,2.4c0.9,1.1,2.4,1.6,4.4,1.5c0.9-0.1,1.8-0.2,2.5-0.5c1.4-0.6,2.1-1.5,2-2.8
				c-0.1-1-0.4-1.6-1.1-2c-0.7-0.4-1.7-0.6-3-0.9l-2.5-0.4c-1.6-0.3-2.8-0.6-3.5-1c-1.2-0.7-1.9-1.7-2-3.2c-0.1-1.6,0.4-2.9,1.5-4
				c1.1-1.1,2.7-1.7,4.8-1.8c1.9-0.1,3.6,0.2,5,1c1.4,0.8,2.2,2.2,2.3,4.2l-2.4,0.2c-0.2-0.9-0.5-1.6-0.9-2.1
				c-0.8-0.9-2.1-1.3-3.9-1.1c-1.4,0.1-2.5,0.5-3.1,1.1c-0.6,0.6-0.9,1.3-0.8,2.1c0.1,0.9,0.5,1.5,1.2,1.8c0.5,0.2,1.6,0.5,3.4,0.8
				l2.6,0.4c1.3,0.2,2.2,0.5,2.9,0.9c1.2,0.8,1.9,1.9,2,3.5c0.1,2-0.5,3.4-2,4.3c-1.4,0.9-3.1,1.5-5.1,1.6c-2.3,0.1-4.1-0.3-5.5-1.4
				c-1.4-1-2.1-2.5-2.2-4.4L184.1,320.3z"/>
		</g>
		<g>
			<path class="st8" d="M221.6,304.5c1.6,1.2,2.7,3,3.3,5.4c0.7,2.6,0.5,4.9-0.4,6.9c-1.1,2.4-3.2,4-6.2,4.8
				c-2.8,0.7-5.3,0.4-7.3-0.9c-1.9-1.3-3.1-3.3-3.8-5.8c-0.6-2.3-0.5-4.5,0.3-6.4c1-2.5,3.1-4.2,6.2-5
				C216.9,302.5,219.5,302.9,221.6,304.5z M222.2,316c0.6-1.7,0.7-3.5,0.2-5.4c-0.5-2-1.5-3.5-2.9-4.4c-1.4-0.9-3.1-1.2-5.1-0.7
				c-1.9,0.5-3.3,1.5-4.2,3c-0.9,1.5-1,3.5-0.4,5.9c0.5,1.9,1.4,3.4,2.8,4.4c1.4,1,3.2,1.3,5.5,0.7
				C220.2,318.8,221.6,317.7,222.2,316z"/>
		</g>
		<g>
			<path class="st8" d="M225.3,300.4l12.2-4.9l0.8,2l-9.8,3.9l2,5l8.6-3.5l0.8,2l-8.6,3.5l3,7.5l-2.4,1L225.3,300.4z"/>
		</g>
		<g>
			<path class="st8" d="M249.4,288.9l2.5-1.5l15.1,11.5l-2.4,1.5l-4.5-3.5l-6.3,3.9l1,5.6l-2.2,1.4L249.4,288.9z M258.5,295.6
				l-6.6-5.2l1.5,8.3L258.5,295.6z"/>
		</g>
		<g>
			<path class="st8" d="M259.2,283l2.8-2.3l13.8,8.1l-5.4-15l2.8-2.3l11.3,13.6l-1.9,1.6l-6.7-8c-0.2-0.3-0.6-0.7-1.1-1.4
				c-0.5-0.7-1.1-1.4-1.7-2.1l5.4,15l-2,1.6l-13.8-8l0.3,0.4c0.3,0.3,0.7,0.8,1.3,1.5c0.6,0.7,1,1.2,1.3,1.5l6.7,8.1l-1.9,1.6
				L259.2,283z"/>
		</g>
		<g>
			<path class="st8" d="M275.5,268.9l9.2-10.2l1.6,1.5l-7.5,8.4l4,3.6l6.9-7.7l1.5,1.4l-6.9,7.7l4.5,4l7.6-8.5l1.6,1.4l-9.3,10.4
				L275.5,268.9z"/>
		</g>
		<g>
			<path class="st8" d="M286.6,256.2l4.8-7.1c0.8-1.2,1.6-2,2.5-2.6c1.6-1,3.2-1,4.9,0.2c0.9,0.6,1.5,1.3,1.8,2
				c0.3,0.8,0.4,1.6,0.2,2.5c0.6-0.5,1.3-0.7,1.9-0.8c0.6-0.1,1.3,0.2,2.2,0.7l2,1.3c0.6,0.4,1,0.6,1.4,0.7c0.6,0.2,1,0.2,1.4-0.1
				l0.3,0.2l-1.8,2.6c-0.2,0-0.4-0.1-0.6-0.2c-0.2-0.1-0.6-0.3-1.2-0.7l-2.5-1.5c-1-0.6-1.9-0.7-2.7-0.2c-0.4,0.3-1,0.8-1.5,1.7
				l-3.2,4.7l6.3,4.3l-1.4,2.1L286.6,256.2z M298,253.8c0.7-1,1-1.9,1-2.7c0-0.8-0.5-1.6-1.4-2.2c-1-0.7-2-0.8-2.9-0.3
				c-0.5,0.3-1,0.8-1.4,1.5l-3.4,5l5,3.4L298,253.8z"/>
		</g>
		<g>
			<path class="st8" d="M296.8,240l1.2-2.3l15.6,8.4l-1.2,2.3L296.8,240z"/>
		</g>
		<g>
			<path class="st8" d="M306.2,222.6c1.6-0.8,3.1-0.9,4.6-0.5l-0.9,2.3c-1.2-0.2-2.2,0-3.1,0.5c-0.9,0.5-1.7,1.5-2.3,2.9
				c-0.7,1.7-0.7,3.3,0,4.8c0.7,1.5,2.2,2.7,4.6,3.7c1.9,0.8,3.7,1,5.3,0.5c1.6-0.4,2.8-1.6,3.5-3.5c0.7-1.7,0.6-3.3-0.3-4.7
				c-0.5-0.7-1.2-1.5-2.2-2.1l0.9-2.3c1.6,0.9,2.8,2.2,3.5,3.8c0.8,2,0.8,4.1-0.2,6.4c-0.8,2-2.1,3.5-3.8,4.4
				c-2.3,1.2-5,1.1-8.2-0.2c-2.4-1-4.1-2.5-5.1-4.5c-1.1-2.2-1.1-4.5,0-7.1C303.4,224.8,304.7,223.4,306.2,222.6z"/>
		</g>
		<g>
			<path class="st8" d="M308,212.2l0.7-2.8l18.9-2.4l-0.7,2.7l-5.6,0.6l-1.8,7.2l4.7,3.3l-0.6,2.5L308,212.2z M319.1,210.6l-8.3,0.9
				l6.9,4.8L319.1,210.6z"/>
		</g>
		<g>
			<path class="st8" d="M29.7,190.3l-0.3-7.4c-0.1-2.5,0.7-4.5,2.3-5.9c1.5-1.3,3.5-2,5.9-2.1c1.9-0.1,3.6,0.2,5.1,0.9
				c2.7,1.2,4.2,3.3,4.3,6.4l0.3,7.3L29.7,190.3z M45,182.8c0-0.8-0.2-1.5-0.3-2c-0.4-0.9-1-1.7-1.9-2.2c-0.7-0.5-1.7-0.8-2.8-0.9
				c-0.7-0.1-1.3-0.1-1.9-0.1c-2.2,0.1-3.9,0.6-5.1,1.6c-1.2,0.9-1.7,2.4-1.6,4.4l0.2,4.3l13.6-0.6L45,182.8z"/>
		</g>
		<g>
			<path class="st8" d="M29.2,169.7l1.2-13.3l2.2,0.2l-1,10.9l5.4,0.5l0.9-10.1l2,0.2L39,168.1l6,0.5l1-11.1l2.1,0.2l-1.2,13.5
				L29.2,169.7z"/>
		</g>
		<g>
			<path class="st8" d="M31.2,150.9l1.8-8.1c0.4-1.6,1.1-2.8,2.2-3.6c1.1-0.8,2.4-1,4-0.7c1.4,0.3,2.4,1,3.2,2.1
				c0.8,1.1,1,2.5,0.6,4.3l-1.2,5.6l7.3,1.6l-0.5,2.4L31.2,150.9z M35.7,142c-0.4,0.5-0.6,1.2-0.9,2.1l-1.1,4.8l6,1.3l1.1-4.8
				c0.2-1.1,0.2-2-0.1-2.8c-0.3-0.8-1-1.3-2.1-1.5C37.4,140.8,36.4,141.1,35.7,142z"/>
		</g>
		<g>
			<path class="st8" d="M36.9,129.5l0.9-2.7l18.9-0.5l-0.9,2.6l-5.6,0.1l-2.4,6.8l4.4,3.6l-0.8,2.4L36.9,129.5z M48.1,129l-8.3,0.1
				l6.4,5.4L48.1,129z"/>
		</g>
		<g>
			<path class="st8" d="M41.8,116.1l3.8-7.5c0.6-1.2,1.3-2.2,2.1-2.8c1.4-1.2,3.1-1.3,4.9-0.4c0.9,0.5,1.6,1.1,2,1.8
				c0.4,0.7,0.6,1.5,0.6,2.4c0.6-0.5,1.1-0.8,1.7-0.9c0.6-0.1,1.3,0,2.3,0.5l2.2,1c0.6,0.3,1.1,0.5,1.4,0.5c0.6,0.1,1,0,1.3-0.2
				l0.4,0.2l-1.4,2.7c-0.2,0-0.4,0-0.6-0.1c-0.2-0.1-0.7-0.2-1.3-0.5l-2.7-1.2c-1.1-0.5-1.9-0.4-2.7,0.1c-0.4,0.3-0.8,0.9-1.3,1.8
				l-2.5,4.9l6.8,3.4l-1.1,2.2L41.8,116.1z M52.7,112.5c0.5-1,0.7-1.9,0.6-2.7c-0.1-0.8-0.7-1.5-1.7-2c-1.1-0.6-2.1-0.5-2.9,0.1
				c-0.4,0.3-0.8,0.9-1.2,1.6l-2.7,5.3l5.4,2.7L52.7,112.5z"/>
		</g>
		<g>
			<path class="st8" d="M58.4,87.8l1.8,1.2l-3.5,5.2l13,8.7l-1.4,2.1l-13-8.7l-3.5,5.2l-1.7-1.2L58.4,87.8z"/>
		</g>
		<g>
			<path class="st8" d="M61.1,84.4l2.4-2.7l14.7,6.1l-7.6-13.9l2.4-2.6L86.1,83l-1.6,1.8l-7.8-7c-0.3-0.2-0.7-0.6-1.3-1.2
				c-0.6-0.6-1.3-1.2-2-1.8L81,88.7l-1.7,1.8l-14.7-6l0.4,0.4c0.3,0.3,0.8,0.7,1.5,1.3s1.2,1,1.5,1.3l7.8,7l-1.6,1.8L61.1,84.4z"/>
		</g>
		<g>
			<path class="st8" d="M77.4,67l10.3-8.6l1.4,1.7l-8.4,7l3.5,4.1l7.7-6.5l1.3,1.6l-7.7,6.5l3.9,4.6l8.5-7.2l1.4,1.6l-10.4,8.7
				L77.4,67z"/>
		</g>
		<g>
			<path class="st8" d="M92,55.3l2.5-1.6l15.4,7.1l-7.7-12.1l2-1.3l9.5,15l-2.4,1.5l-15.6-7.1l7.7,12.1l-2,1.3L92,55.3z"/>
		</g>
		<g>
			<path class="st8" d="M121.7,38.8l0.9,1.9l-5.6,2.6l6.7,14.1l-2.3,1.1l-6.7-14.1l-5.6,2.6l-0.9-1.9L121.7,38.8z"/>
		</g>
		<g>
			<path class="st8" d="M147.9,33.4c1.6,1.2,2.7,3,3.3,5.4c0.7,2.6,0.6,4.9-0.3,6.9c-1.1,2.4-3.1,4-6,4.8c-2.7,0.7-5.1,0.4-7.2-0.9
				c-1.8-1.3-3.1-3.2-3.8-5.8c-0.6-2.3-0.5-4.5,0.2-6.4c1-2.5,3-4.2,6-5C143.3,31.5,145.9,31.9,147.9,33.4z M148.7,44.9
				c0.6-1.7,0.6-3.5,0.1-5.4c-0.5-2-1.5-3.5-2.9-4.4c-1.4-0.9-3.1-1.2-5-0.7c-1.8,0.5-3.2,1.5-4,3c-0.8,1.5-1,3.5-0.3,5.9
				c0.5,1.9,1.4,3.4,2.8,4.4c1.3,1,3.1,1.3,5.4,0.7C146.7,47.8,148.1,46.6,148.7,44.9z"/>
		</g>
		<g>
			<path class="st8" d="M154.2,29.6l12.7-1.6l0.3,2.2l-10.2,1.3l0.7,5.3l9-1.1l0.3,2.1l-9,1.1l1,8l-2.5,0.3L154.2,29.6z"/>
		</g>
		<g>
			<path class="st8" d="M192.2,28.1l-0.1,2.1L186,30l-0.6,15.6l-2.5-0.1l0.6-15.6l-6.2-0.2l0.1-2.1L192.2,28.1z"/>
		</g>
		<g>
			<path class="st8" d="M196.7,28.6l8.3,1.3c1.4,0.2,2.5,0.6,3.3,1.1c1.6,1,2.2,2.5,1.8,4.5c-0.2,1-0.5,1.9-1.1,2.5
				c-0.6,0.6-1.3,1-2.2,1.3c0.7,0.4,1.1,0.8,1.4,1.4c0.3,0.5,0.4,1.3,0.2,2.3l-0.3,2.4c-0.1,0.7-0.1,1.2-0.1,1.5
				c0.1,0.6,0.3,1,0.6,1.2l-0.1,0.4l-3-0.5c-0.1-0.2-0.1-0.4-0.1-0.6c0-0.2,0-0.7,0.1-1.4L206,43c0.1-1.2-0.2-2-0.9-2.5
				c-0.4-0.3-1.1-0.5-2.1-0.7l-5.5-0.9l-1.2,7.5l-2.5-0.4L196.7,28.6z M203.4,37.9c1.1,0.2,2,0.1,2.8-0.2c0.7-0.3,1.2-1.1,1.4-2.2
				c0.2-1.2-0.1-2.2-1-2.8c-0.5-0.3-1.1-0.5-1.9-0.7l-5.9-1l-1,6L203.4,37.9z"/>
		</g>
		<g>
			<path class="st8" d="M221.8,33.8l2.7,0.8l1.3,18.9l-2.6-0.8l-0.3-5.6L216,45l-3.4,4.5l-2.5-0.7L221.8,33.8z M222.8,45l-0.5-8.3
				l-5.1,6.6L222.8,45z"/>
		</g>
		<g>
			<path class="st8" d="M234.7,38.1l2.7,1.2l2.5,16.8l5.9-13.1l2.2,1l-7.3,16.2l-2.6-1.2l-2.6-16.9l-5.9,13l-2.2-1L234.7,38.1z"/>
		</g>
		<g>
			<path class="st8" d="M248.5,58.1c-0.5,0.9-0.7,1.7-0.7,2.5c0.1,1.4,0.9,2.7,2.7,3.7c0.8,0.5,1.5,0.8,2.3,1c1.5,0.3,2.6,0,3.2-1.1
				c0.5-0.8,0.6-1.6,0.3-2.2c-0.3-0.7-0.9-1.5-1.9-2.4l-1.8-1.7c-1.2-1.1-1.9-2.1-2.2-2.8c-0.6-1.2-0.5-2.5,0.3-3.7
				c0.8-1.4,2-2.2,3.5-2.4c1.5-0.3,3.1,0.1,4.8,1.2c1.6,1,2.7,2.2,3.4,3.7c0.6,1.5,0.4,3-0.6,4.7l-2-1.2c0.4-0.9,0.6-1.6,0.5-2.3
				c-0.1-1.2-0.9-2.2-2.4-3.1c-1.2-0.7-2.2-1-3.1-0.8c-0.8,0.2-1.5,0.6-1.9,1.3c-0.5,0.7-0.5,1.5-0.1,2.2c0.3,0.5,1,1.3,2.2,2.5
				l1.8,1.8c0.9,0.9,1.5,1.7,1.8,2.4c0.5,1.3,0.4,2.6-0.5,4c-1,1.7-2.4,2.5-4.1,2.4c-1.7,0-3.3-0.6-5-1.6c-1.9-1.2-3.1-2.6-3.6-4.2
				c-0.5-1.6-0.2-3.2,0.8-4.8L248.5,58.1z"/>
		</g>
		<g>
			<path class="st8" d="M269.6,57.3l6.4,5.2c1.3,1,2,2.2,2.2,3.5c0.2,1.3-0.2,2.6-1.2,3.9c-0.9,1.1-2,1.7-3.3,2
				c-1.3,0.2-2.7-0.2-4.2-1.4l-4.5-3.6l-4.7,5.8l-1.9-1.6L269.6,57.3z M275.6,65.3c-0.3-0.5-0.8-1.1-1.5-1.7l-3.8-3.1l-3.9,4.8
				l3.8,3.1c0.9,0.7,1.7,1.1,2.5,1.2c0.8,0.1,1.6-0.3,2.3-1.2C275.9,67.3,276.1,66.3,275.6,65.3z"/>
		</g>
		<g>
			<path class="st8" d="M292.4,82.5c-0.3,2-1.4,3.8-3.1,5.5c-1.9,1.8-4,2.8-6.3,3c-2.6,0.2-5-0.8-7-3c-1.9-2.1-2.8-4.3-2.6-6.7
				c0.3-2.2,1.4-4.3,3.3-6.1c1.8-1.6,3.7-2.6,5.8-2.8c2.7-0.3,5.1,0.6,7.2,2.9C291.9,77.5,292.8,80,292.4,82.5z M282.6,88.6
				c1.8-0.3,3.4-1.2,4.8-2.5c1.5-1.4,2.4-3,2.5-4.7c0.2-1.7-0.4-3.3-1.8-4.7c-1.3-1.4-2.8-2.1-4.6-2.1c-1.7,0-3.5,0.8-5.3,2.5
				c-1.4,1.3-2.3,2.9-2.6,4.5c-0.3,1.7,0.4,3.4,2,5.1C279.2,88.3,280.9,88.9,282.6,88.6z"/>
		</g>
		<g>
			<path class="st8" d="M298.9,86.3l4.8,6.9c0.8,1.1,1.3,2.2,1.5,3.1c0.4,1.8-0.3,3.3-2,4.5c-0.9,0.6-1.7,0.9-2.5,0.9
				c-0.8,0-1.6-0.2-2.4-0.6c0.2,0.8,0.2,1.4,0,2c-0.2,0.6-0.7,1.2-1.5,1.8l-1.9,1.4c-0.5,0.4-0.9,0.7-1.1,1
				c-0.4,0.4-0.5,0.9-0.4,1.3l-0.3,0.2l-1.8-2.5c0.1-0.2,0.2-0.3,0.4-0.5c0.2-0.2,0.5-0.5,1.1-0.9l2.3-1.8c0.9-0.7,1.3-1.5,1.2-2.4
				c-0.1-0.5-0.4-1.2-1-2l-3.2-4.5l-6.2,4.3l-1.4-2L298.9,86.3z M296.8,97.6c0.7,0.9,1.4,1.5,2.1,1.8c0.7,0.3,1.6,0.1,2.6-0.6
				c1-0.7,1.5-1.6,1.3-2.6c-0.1-0.5-0.4-1.2-0.8-1.8l-3.4-4.9l-5,3.5L296.8,97.6z"/>
		</g>
		<g>
			<path class="st8" d="M316,114.4l-1.9,1l-2.9-5.5l-13.8,7.3l-1.2-2.2l13.8-7.3l-2.9-5.5l1.9-1L316,114.4z"/>
		</g>
		<g>
			<path class="st8" d="M318.7,121.4l1,2.6l-14.1,12.7l-1-2.5l4.2-3.7l-2.6-6.7l-5.7,0.1l-0.9-2.4L318.7,121.4z M310.5,129.1
				l6.3-5.5l-8.4,0.1L310.5,129.1z"/>
		</g>
		<g>
			<path class="st8" d="M326.2,145.1l-2,0.6l-1.6-6l-15.1,4.1l-0.7-2.4l15.1-4.1l-1.6-6l2-0.5L326.2,145.1z"/>
		</g>
		<g>
			<path class="st8" d="M326.8,149.4l0.4,2.5l-17.5,3.1l-0.4-2.5L326.8,149.4z"/>
		</g>
		<g>
			<path class="st8" d="M327,172.6c-1.5,1.3-3.4,2.1-5.9,2.3c-2.6,0.2-4.9-0.3-6.7-1.6c-2.2-1.5-3.4-3.7-3.6-6.8
				c-0.2-2.8,0.5-5.1,2.2-6.9c1.6-1.6,3.8-2.5,6.4-2.7c2.4-0.2,4.5,0.3,6.3,1.4c2.3,1.4,3.6,3.7,3.8,6.8
				C329.7,168.4,328.9,170.9,327,172.6z M315.6,171.2c1.6,0.9,3.4,1.2,5.3,1.1c2.1-0.2,3.7-0.8,4.9-2.1c1.2-1.2,1.7-2.8,1.6-4.8
				c-0.1-1.9-0.9-3.4-2.2-4.5c-1.3-1.1-3.2-1.6-5.7-1.4c-2,0.1-3.6,0.8-4.8,1.9c-1.3,1.1-1.8,2.9-1.6,5.2
				C313.1,168.8,314,170.3,315.6,171.2z"/>
		</g>
		<g>
			<path class="st8" d="M329.7,179.4l-0.2,2.9l-14.9,8.2l14.3,1l-0.2,2.4l-17.7-1.2l0.2-2.8l14.9-8.3l-14.3-1l0.2-2.4L329.7,179.4z"
				/>
		</g>
	</g>
	<path class="st5" d="M181,5.5"/>
	<path class="st5" d="M12.5,178"/>
	<path class="st5" d="M178.5,346"/>
	<path class="st5" d="M351,158.5"/>
</g>
<g id="live_text" class="st1">
	<g class="st2">
		<text transform="matrix(0.2752 1.0315 -0.9662 0.2578 32.1906 208.0419)" class="st9 st10">U</text>
		<text transform="matrix(0.4255 0.9791 -0.9171 0.3986 37.7431 228.1315)" class="st9 st11">N</text>
		<text transform="matrix(0.5235 0.9304 -0.8715 0.4904 46.3099 246.9923)" class="st9 st12">I</text>
		<text transform="matrix(0.6054 0.8793 -0.8236 0.5671 50.4277 254.2864)" class="st9 st13">T</text>
		<text transform="matrix(0.7119 0.7955 -0.7452 0.6669 60.4838 268.9809)" class="st9 st14">E</text>
		<text transform="matrix(0.8129 0.692 -0.6482 0.7615 73.3519 283.3531)" class="st9 st15">D</text>
		<text transform="matrix(0.9282 0.5274 -0.494 0.8695 96.3462 301.5737)" class="st9 st16">S</text>
		<text transform="matrix(0.9856 0.4103 -0.3843 0.9232 113.1906 311.0976)" class="st9 st10">T</text>
		<text transform="matrix(1.0241 0.3017 -0.2826 0.9592 127.7893 316.9654)" class="st9 st17">A</text>
		<text transform="matrix(1.0504 0.1904 -0.1784 0.984 144.1396 321.8882)" class="st9 st18">T</text>
		<text transform="matrix(1.0656 6.415975e-02 -6.010000e-02 0.9982 161.5388 324.9467)" class="st9 st19">E</text>
		<text transform="matrix(1.0655 -6.672187e-02 6.250000e-02 0.9981 180.8234 326.2435)" class="st9 st17">S</text>
		<text transform="matrix(1.0342 -0.2649 0.2481 0.9687 208.2728 323.5237)" class="st9 st20">O</text>
		<text transform="matrix(0.9905 -0.3983 0.3731 0.9278 229.8044 317.636)" class="st9 st21">F</text>
		<text transform="matrix(0.9109 -0.5567 0.5215 0.8533 252.1702 307.8871)" class="st9 st18">A</text>
		<text transform="matrix(0.8214 -0.6819 0.6388 0.7694 268.9745 297.9273)" class="st9 st22">M</text>
		<text transform="matrix(0.7134 -0.7941 0.7439 0.6683 287.1953 282.3845)" class="st9 st19">E</text>
		<text transform="matrix(0.5974 -0.8847 0.8287 0.5596 300.0071 267.9921)" class="st9 st23">R</text>
		<text transform="matrix(0.5047 -0.9407 0.8812 0.4728 311.1214 250.6217)" class="st9 st24">I</text>
		<text transform="matrix(0.4052 -0.9877 0.9252 0.3796 315.6187 243.0978)" class="st9 st18">C</text>
		<text transform="matrix(0.2594 -1.0355 0.97 0.243 323.3017 223.7684)" class="st9 st25">A</text>
		<text transform="matrix(-4.659200e-02 -1.039 0.999 -4.480000e-02 47.5212 191.6345)" class="st9 st19">D</text>
		<text transform="matrix(9.132239e-02 -1.036 0.9961 8.780000e-02 46.6567 173.4539)" class="st9 st25">E</text>
		<text transform="matrix(0.2243 -1.0155 0.9765 0.2157 48.0898 156.8813)" class="st9 st26">P</text>
		<text transform="matrix(0.3402 -0.9828 0.945 0.3271 51.2043 142.209)" class="st9 st12">A</text>
		<text transform="matrix(0.4691 -0.9282 0.8925 0.4511 56.5701 126.1142)" class="st9 st22">R</text>
		<text transform="matrix(0.5812 -0.8625 0.8293 0.5588 64.5475 110.3929)" class="st9 st10">T</text>
		<text transform="matrix(0.6941 -0.7745 0.7447 0.6674 73.015 97.6202)" class="st9 st27">M</text>
		<text transform="matrix(0.7967 -0.6685 0.6428 0.766 87.1642 82.0323)" class="st9 st25">E</text>
		<text transform="matrix(0.8775 -0.5583 0.5368 0.8437 99.8764 71.2654)" class="st9 st10">N</text>
		<text transform="matrix(0.9408 -0.4433 0.4263 0.9046 115.3828 61.387)" class="st9 st21">T</text>
		<text transform="matrix(1.0055 -0.2656 0.2554 0.9668 135.2209 52.4617)" class="st9 st25">O</text>
		<text transform="matrix(1.0316 -0.1321 0.127 0.9919 154.2389 47.4637)" class="st9 st27">F</text>
		<text transform="matrix(1.0393 3.796000e-02 -3.650000e-02 0.9993 176.2181 45.192)" class="st9 st17">T</text>
		<text transform="matrix(1.0265 0.167 -0.1606 0.987 191.6403 45.7126)" class="st9 st28">R</text>
		<text transform="matrix(0.9958 0.3 -0.2885 0.9575 209.7018 48.6348)" class="st9 st22">A</text>
		<text transform="matrix(0.9477 0.4284 -0.4119 0.9112 225.5745 53.4879)" class="st9 st11">N</text>
		<text transform="matrix(0.8833 0.549 -0.5279 0.8493 242.4248 61.053)" class="st9 st27">S</text>
		<text transform="matrix(0.8071 0.6559 -0.6307 0.776 256.7567 69.6576)" class="st9 st11">P</text>
		<text transform="matrix(0.71 0.7599 -0.7307 0.6827 269.606 80.3432)" class="st9 st10">O</text>
		<text transform="matrix(0.5948 0.8532 -0.8203 0.5719 283.0504 94.612)" class="st9 st29">R</text>
		<text transform="matrix(0.4839 0.9205 -0.8851 0.4653 293.1401 109.0109)" class="st9 st30">T</text>
		<text transform="matrix(0.3801 0.968 -0.9308 0.3655 299.5609 121.0681)" class="st9 st31">A</text>
		<text transform="matrix(0.2712 1.004 -0.9654 0.2608 305.0941 134.9247)" class="st9 st27">T</text>
		<text transform="matrix(0.1829 1.0238 -0.9844 0.1759 308.9206 150.0517)" class="st9 st10">I</text>
		<text transform="matrix(7.717766e-02 1.0371 -0.9972 7.420000e-02 310.5667 156.5766)" class="st9 st13">O</text>
		<text transform="matrix(-7.165600e-02 1.0375 -0.9976 -6.890000e-02 312.0973 176.1998)" class="st9 st11">N</text>
	</g>
</g>
</svg>
